<?xml version="1.0" encoding="UTF-8" standalone="no"?>
<!DOCTYPE svg PUBLIC "-//W3C//DTD SVG 1.1//EN"
 "http://www.w3.org/Graphics/SVG/1.1/DTD/svg11.dtd">
<!-- Generated by graphviz version 2.26.3 (20100126.1600)
 -->
<!-- Title: G Pages: 1 -->
<svg width="740pt" height="2286pt"
 viewBox="0.00 0.00 740.00 2286.00" xmlns="http://www.w3.org/2000/svg" xmlns:xlink="http://www.w3.org/1999/xlink">
<g id="graph1" class="graph" transform="scale(1 1) rotate(0) translate(4 2282)">
<title>G</title>
<polygon fill="white" stroke="white" points="-4,5 -4,-2282 737,-2282 737,5 -4,5"/>
<g id="graph2" class="cluster"><title>cluster_Global</title>
<polyline fill="none" stroke="gray" points="177,-44 712,-44 "/>
<path fill="none" stroke="gray" d="M712,-44C718,-44 724,-50 724,-56"/>
<polyline fill="none" stroke="gray" points="724,-56 724,-2258 "/>
<path fill="none" stroke="gray" d="M724,-2258C724,-2264 718,-2270 712,-2270"/>
<polyline fill="none" stroke="gray" points="712,-2270 177,-2270 "/>
<path fill="none" stroke="gray" d="M177,-2270C171,-2270 165,-2264 165,-2258"/>
<polyline fill="none" stroke="gray" points="165,-2258 165,-56 "/>
<path fill="none" stroke="gray" d="M165,-56C165,-50 171,-44 177,-44"/>
<text text-anchor="middle" x="444.5" y="-2256.1" font-family="Times Roman,serif" font-size="11.00" fill="gray">\</text>
</g>
<g id="graph3" class="cluster"><title>cluster_\Application</title>
<polyline fill="none" stroke="gray" points="568,-720 704,-720 "/>
<path fill="none" stroke="gray" d="M704,-720C710,-720 716,-726 716,-732"/>
<polyline fill="none" stroke="gray" points="716,-732 716,-1502 "/>
<path fill="none" stroke="gray" d="M716,-1502C716,-1508 710,-1514 704,-1514"/>
<polyline fill="none" stroke="gray" points="704,-1514 568,-1514 "/>
<path fill="none" stroke="gray" d="M568,-1514C562,-1514 556,-1508 556,-1502"/>
<polyline fill="none" stroke="gray" points="556,-1502 556,-732 "/>
<path fill="none" stroke="gray" d="M556,-732C556,-726 562,-720 568,-720"/>
<text text-anchor="middle" x="636" y="-1500.1" font-family="Times Roman,serif" font-size="11.00" fill="gray">Application</text>
</g>
<g id="graph4" class="cluster"><title>cluster_\Application\Database</title>
<polyline fill="none" stroke="gray" points="601,-1356 671,-1356 "/>
<path fill="none" stroke="gray" d="M671,-1356C677,-1356 683,-1362 683,-1368"/>
<polyline fill="none" stroke="gray" points="683,-1368 683,-1472 "/>
<path fill="none" stroke="gray" d="M683,-1472C683,-1478 677,-1484 671,-1484"/>
<polyline fill="none" stroke="gray" points="671,-1484 601,-1484 "/>
<path fill="none" stroke="gray" d="M601,-1484C595,-1484 589,-1478 589,-1472"/>
<polyline fill="none" stroke="gray" points="589,-1472 589,-1368 "/>
<path fill="none" stroke="gray" d="M589,-1368C589,-1362 595,-1356 601,-1356"/>
<text text-anchor="middle" x="636" y="-1470.1" font-family="Times Roman,serif" font-size="11.00" fill="gray">Database</text>
</g>
<g id="graph5" class="cluster"><title>cluster_\Application\Domain</title>
<polyline fill="none" stroke="gray" points="576,-910 696,-910 "/>
<path fill="none" stroke="gray" d="M696,-910C702,-910 708,-916 708,-922"/>
<polyline fill="none" stroke="gray" points="708,-922 708,-1336 "/>
<path fill="none" stroke="gray" d="M708,-1336C708,-1342 702,-1348 696,-1348"/>
<polyline fill="none" stroke="gray" points="696,-1348 576,-1348 "/>
<path fill="none" stroke="gray" d="M576,-1348C570,-1348 564,-1342 564,-1336"/>
<polyline fill="none" stroke="gray" points="564,-1336 564,-922 "/>
<path fill="none" stroke="gray" d="M564,-922C564,-916 570,-910 576,-910"/>
<text text-anchor="middle" x="636" y="-1334.1" font-family="Times Roman,serif" font-size="11.00" fill="gray">Domain</text>
</g>
<g id="graph6" class="cluster"><title>cluster_\Application\Domain\Entity</title>
<polyline fill="none" stroke="gray" points="588,-1136 684,-1136 "/>
<path fill="none" stroke="gray" d="M684,-1136C690,-1136 696,-1142 696,-1148"/>
<polyline fill="none" stroke="gray" points="696,-1148 696,-1306 "/>
<path fill="none" stroke="gray" d="M696,-1306C696,-1312 690,-1318 684,-1318"/>
<polyline fill="none" stroke="gray" points="684,-1318 588,-1318 "/>
<path fill="none" stroke="gray" d="M588,-1318C582,-1318 576,-1312 576,-1306"/>
<polyline fill="none" stroke="gray" points="576,-1306 576,-1148 "/>
<path fill="none" stroke="gray" d="M576,-1148C576,-1142 582,-1136 588,-1136"/>
<text text-anchor="middle" x="636" y="-1304.1" font-family="Times Roman,serif" font-size="11.00" fill="gray">Entity</text>
</g>
<g id="graph7" class="cluster"><title>cluster_\Application\Domain\Service</title>
<polyline fill="none" stroke="gray" points="594,-1054 678,-1054 "/>
<path fill="none" stroke="gray" d="M678,-1054C684,-1054 690,-1060 690,-1066"/>
<polyline fill="none" stroke="gray" points="690,-1066 690,-1116 "/>
<path fill="none" stroke="gray" d="M690,-1116C690,-1122 684,-1128 678,-1128"/>
<polyline fill="none" stroke="gray" points="678,-1128 594,-1128 "/>
<path fill="none" stroke="gray" d="M594,-1128C588,-1128 582,-1122 582,-1116"/>
<polyline fill="none" stroke="gray" points="582,-1116 582,-1066 "/>
<path fill="none" stroke="gray" d="M582,-1066C582,-1060 588,-1054 594,-1054"/>
<text text-anchor="middle" x="636" y="-1114.1" font-family="Times Roman,serif" font-size="11.00" fill="gray">Service</text>
</g>
<g id="graph8" class="cluster"><title>cluster_\Application\Domain\Repository</title>
<polyline fill="none" stroke="gray" points="584,-918 688,-918 "/>
<path fill="none" stroke="gray" d="M688,-918C694,-918 700,-924 700,-930"/>
<polyline fill="none" stroke="gray" points="700,-930 700,-1034 "/>
<path fill="none" stroke="gray" d="M700,-1034C700,-1040 694,-1046 688,-1046"/>
<polyline fill="none" stroke="gray" points="688,-1046 584,-1046 "/>
<path fill="none" stroke="gray" d="M584,-1046C578,-1046 572,-1040 572,-1034"/>
<polyline fill="none" stroke="gray" points="572,-1034 572,-930 "/>
<path fill="none" stroke="gray" d="M572,-930C572,-924 578,-918 584,-918"/>
<text text-anchor="middle" x="636" y="-1032.1" font-family="Times Roman,serif" font-size="11.00" fill="gray">Repository</text>
</g>
<g id="graph9" class="cluster"><title>cluster_\Application\Controller</title>
<polyline fill="none" stroke="gray" points="608,-774 664,-774 "/>
<path fill="none" stroke="gray" d="M664,-774C670,-774 676,-780 676,-786"/>
<polyline fill="none" stroke="gray" points="676,-786 676,-890 "/>
<path fill="none" stroke="gray" d="M676,-890C676,-896 670,-902 664,-902"/>
<polyline fill="none" stroke="gray" points="664,-902 608,-902 "/>
<path fill="none" stroke="gray" d="M608,-902C602,-902 596,-896 596,-890"/>
<polyline fill="none" stroke="gray" points="596,-890 596,-786 "/>
<path fill="none" stroke="gray" d="M596,-786C596,-780 602,-774 608,-774"/>
<text text-anchor="middle" x="636" y="-888.1" font-family="Times Roman,serif" font-size="11.00" fill="gray">Controller</text>
</g>
<g id="graph10" class="cluster"><title>cluster_\System</title>
<polyline fill="none" stroke="gray" points="185,-52 512,-52 "/>
<path fill="none" stroke="gray" d="M512,-52C518,-52 524,-58 524,-64"/>
<polyline fill="none" stroke="gray" points="524,-64 524,-2228 "/>
<path fill="none" stroke="gray" d="M524,-2228C524,-2234 518,-2240 512,-2240"/>
<polyline fill="none" stroke="gray" points="512,-2240 185,-2240 "/>
<path fill="none" stroke="gray" d="M185,-2240C179,-2240 173,-2234 173,-2228"/>
<polyline fill="none" stroke="gray" points="173,-2228 173,-64 "/>
<path fill="none" stroke="gray" d="M173,-64C173,-58 179,-52 185,-52"/>
<text text-anchor="middle" x="348.5" y="-2226.1" font-family="Times Roman,serif" font-size="11.00" fill="gray">System</text>
</g>
<g id="graph11" class="cluster"><title>cluster_\System\Core</title>
<polyline fill="none" stroke="gray" points="193,-358 504,-358 "/>
<path fill="none" stroke="gray" d="M504,-358C510,-358 516,-364 516,-370"/>
<polyline fill="none" stroke="gray" points="516,-370 516,-2198 "/>
<path fill="none" stroke="gray" d="M516,-2198C516,-2204 510,-2210 504,-2210"/>
<polyline fill="none" stroke="gray" points="504,-2210 193,-2210 "/>
<path fill="none" stroke="gray" d="M193,-2210C187,-2210 181,-2204 181,-2198"/>
<polyline fill="none" stroke="gray" points="181,-2198 181,-370 "/>
<path fill="none" stroke="gray" d="M181,-370C181,-364 187,-358 193,-358"/>
<text text-anchor="middle" x="348.5" y="-2196.1" font-family="Times Roman,serif" font-size="11.00" fill="gray">Core</text>
</g>
<g id="graph12" class="cluster"><title>cluster_\System\Core\Exception</title>
<polyline fill="none" stroke="gray" points="404,-520 480,-520 "/>
<path fill="none" stroke="gray" d="M480,-520C486,-520 492,-526 492,-532"/>
<polyline fill="none" stroke="gray" points="492,-532 492,-636 "/>
<path fill="none" stroke="gray" d="M492,-636C492,-642 486,-648 480,-648"/>
<polyline fill="none" stroke="gray" points="480,-648 404,-648 "/>
<path fill="none" stroke="gray" d="M404,-648C398,-648 392,-642 392,-636"/>
<polyline fill="none" stroke="gray" points="392,-636 392,-532 "/>
<path fill="none" stroke="gray" d="M392,-532C392,-526 398,-520 404,-520"/>
<text text-anchor="middle" x="442" y="-634.1" font-family="Times Roman,serif" font-size="11.00" fill="gray">Exception</text>
</g>
<g id="graph13" class="cluster"><title>cluster_\System\Core\Database</title>
<polyline fill="none" stroke="gray" points="206,-1728 494,-1728 "/>
<path fill="none" stroke="gray" d="M494,-1728C500,-1728 506,-1734 506,-1740"/>
<polyline fill="none" stroke="gray" points="506,-1740 506,-2168 "/>
<path fill="none" stroke="gray" d="M506,-2168C506,-2174 500,-2180 494,-2180"/>
<polyline fill="none" stroke="gray" points="494,-2180 206,-2180 "/>
<path fill="none" stroke="gray" d="M206,-2180C200,-2180 194,-2174 194,-2168"/>
<polyline fill="none" stroke="gray" points="194,-2168 194,-1740 "/>
<path fill="none" stroke="gray" d="M194,-1740C194,-1734 200,-1728 206,-1728"/>
<text text-anchor="middle" x="350" y="-2166.1" font-family="Times Roman,serif" font-size="11.00" fill="gray">Database</text>
</g>
<g id="graph14" class="cluster"><title>cluster_\System\Helper</title>
<polyline fill="none" stroke="gray" points="407,-60 477,-60 "/>
<path fill="none" stroke="gray" d="M477,-60C483,-60 489,-66 489,-72"/>
<polyline fill="none" stroke="gray" points="489,-72 489,-338 "/>
<path fill="none" stroke="gray" d="M489,-338C489,-344 483,-350 477,-350"/>
<polyline fill="none" stroke="gray" points="477,-350 407,-350 "/>
<path fill="none" stroke="gray" d="M407,-350C401,-350 395,-344 395,-338"/>
<polyline fill="none" stroke="gray" points="395,-338 395,-72 "/>
<path fill="none" stroke="gray" d="M395,-72C395,-66 401,-60 407,-60"/>
<text text-anchor="middle" x="442" y="-336.1" font-family="Times Roman,serif" font-size="11.00" fill="gray">Helper</text>
</g>
<!-- \\Application\\Database\\ItemTable -->
<g id="node4" class="node"><title>\\Application\\Database\\ItemTable</title>
<polygon fill="none" stroke="black" points="674,-1454 598,-1454 598,-1418 674,-1418 674,-1454"/>
<text text-anchor="middle" x="636" y="-1433.1" font-family="Courier,monospace" font-size="11.00">ItemTable</text>
</g>
<!-- \\System\\Core\\Database\\Table -->
<g id="node26" class="node"><title>\\System\\Core\\Database\\Table</title>
<polygon fill="none" stroke="black" points="469,-2150 415,-2150 415,-2114 469,-2114 469,-2150"/>
<text text-anchor="middle" x="442" y="-2129.1" font-family="Courier,monospace" font-size="11.00">Table</text>
</g>
<!-- \\Application\\Database\\ItemTable&#45;&gt;\\System\\Core\\Database\\Table -->
<g id="edge15" class="edge"><title>\\Application\\Database\\ItemTable&#45;&gt;\\System\\Core\\Database\\Table</title>
<path fill="none" stroke="black" d="M635.423,-1454.28C632.011,-1551.07 611.532,-2003.02 524,-2105 512.869,-2117.97 495.387,-2124.74 479.418,-2128.26"/>
<polygon fill="none" stroke="black" points="478.425,-2124.89 469.225,-2130.14 479.694,-2131.77 478.425,-2124.89"/>
</g>
<!-- \\Application\\Database\\TypeTable -->
<g id="node5" class="node"><title>\\Application\\Database\\TypeTable</title>
<polygon fill="none" stroke="black" points="674,-1400 598,-1400 598,-1364 674,-1364 674,-1400"/>
<text text-anchor="middle" x="636" y="-1379.1" font-family="Courier,monospace" font-size="11.00">TypeTable</text>
</g>
<!-- \\Application\\Database\\TypeTable&#45;&gt;\\System\\Core\\Database\\Table -->
<g id="edge41" class="edge"><title>\\Application\\Database\\TypeTable&#45;&gt;\\System\\Core\\Database\\Table</title>
<path fill="none" stroke="black" d="M597.085,-1385.76C581.837,-1389.32 565.702,-1396.12 556,-1409 462.839,-1532.67 617.618,-1981.68 524,-2105 513.418,-2118.94 495.43,-2125.78 478.993,-2129.1"/>
<polygon fill="none" stroke="black" points="478.336,-2125.66 469.04,-2130.74 479.476,-2132.56 478.336,-2125.66"/>
</g>
<!-- \\Application\\Domain\\Entity\\ItemValidator -->
<g id="node8" class="node"><title>\\Application\\Domain\\Entity\\ItemValidator</title>
<polygon fill="none" stroke="black" points="688,-1288 584,-1288 584,-1252 688,-1252 688,-1288"/>
<text text-anchor="middle" x="636" y="-1267.1" font-family="Courier,monospace" font-size="11.00">ItemValidator</text>
</g>
<!-- \\System\\Core\\EntityValidator -->
<g id="node59" class="node"><title>\\System\\Core\\EntityValidator</title>
<polygon fill="none" stroke="black" points="501,-1664 383,-1664 383,-1628 501,-1628 501,-1664"/>
<text text-anchor="middle" x="442" y="-1643.1" font-family="Courier,monospace" font-size="11.00">EntityValidator</text>
</g>
<!-- \\Application\\Domain\\Entity\\ItemValidator&#45;&gt;\\System\\Core\\EntityValidator -->
<g id="edge19" class="edge"><title>\\Application\\Domain\\Entity\\ItemValidator&#45;&gt;\\System\\Core\\EntityValidator</title>
<path fill="none" stroke="black" d="M610.941,-1288.21C592.457,-1303.13 568.444,-1325.98 556,-1352 504.428,-1459.82 599.707,-1526.52 524,-1619 520.168,-1623.68 515.507,-1627.56 510.372,-1630.77"/>
<polygon fill="none" stroke="black" points="508.537,-1627.78 501.347,-1635.56 511.82,-1633.96 508.537,-1627.78"/>
</g>
<!-- \\Application\\Domain\\Entity\\Type -->
<g id="node9" class="node"><title>\\Application\\Domain\\Entity\\Type</title>
<polygon fill="none" stroke="black" points="663,-1234 609,-1234 609,-1198 663,-1198 663,-1234"/>
<text text-anchor="middle" x="636" y="-1213.1" font-family="Courier,monospace" font-size="11.00">Type</text>
</g>
<!-- \\System\\Core\\Entity -->
<g id="node35" class="node"><title>\\System\\Core\\Entity</title>
<polygon fill="none" stroke="black" points="470,-1502 414,-1502 414,-1466 470,-1466 470,-1502"/>
<text text-anchor="middle" x="442" y="-1481.1" font-family="Courier,monospace" font-size="11.00">Entity</text>
</g>
<!-- \\Application\\Domain\\Entity\\Type&#45;&gt;\\System\\Core\\Entity -->
<g id="edge31" class="edge"><title>\\Application\\Domain\\Entity\\Type&#45;&gt;\\System\\Core\\Entity</title>
<path fill="none" stroke="black" d="M608.953,-1218.03C591.216,-1220.85 568.983,-1227.49 556,-1243 494.277,-1316.75 585.995,-1383.48 524,-1457 513.3,-1469.69 496.513,-1476.45 480.907,-1480.04"/>
<polygon fill="none" stroke="black" points="480.054,-1476.64 470.898,-1481.97 481.38,-1483.52 480.054,-1476.64"/>
</g>
<!-- \\Application\\Domain\\Entity\\Item -->
<g id="node10" class="node"><title>\\Application\\Domain\\Entity\\Item</title>
<polygon fill="none" stroke="black" points="663,-1180 609,-1180 609,-1144 663,-1144 663,-1180"/>
<text text-anchor="middle" x="636" y="-1159.1" font-family="Courier,monospace" font-size="11.00">Item</text>
</g>
<!-- \\Application\\Domain\\Entity\\Item&#45;&gt;\\System\\Core\\Entity -->
<g id="edge33" class="edge"><title>\\Application\\Domain\\Entity\\Item&#45;&gt;\\System\\Core\\Entity</title>
<path fill="none" stroke="black" d="M608.806,-1163.91C591.003,-1166.68 568.752,-1173.3 556,-1189 480.379,-1282.12 599.966,-1364.16 524,-1457 513.411,-1469.94 496.478,-1476.73 480.742,-1480.27"/>
<polygon fill="none" stroke="black" points="479.837,-1476.88 470.652,-1482.16 481.126,-1483.76 479.837,-1476.88"/>
</g>
<!-- \\Application\\Domain\\Service\\ItemService -->
<g id="node12" class="node"><title>\\Application\\Domain\\Service\\ItemService</title>
<polygon fill="none" stroke="black" points="681,-1098 591,-1098 591,-1062 681,-1062 681,-1098"/>
<text text-anchor="middle" x="636" y="-1077.1" font-family="Courier,monospace" font-size="11.00">ItemService</text>
</g>
<!-- \\System\\Core\\Service -->
<g id="node52" class="node"><title>\\System\\Core\\Service</title>
<polygon fill="none" stroke="black" points="474,-1070 410,-1070 410,-1034 474,-1034 474,-1070"/>
<text text-anchor="middle" x="442" y="-1049.1" font-family="Courier,monospace" font-size="11.00">Service</text>
</g>
<!-- \\Application\\Domain\\Service\\ItemService&#45;&gt;\\System\\Core\\Service -->
<g id="edge23" class="edge"><title>\\Application\\Domain\\Service\\ItemService&#45;&gt;\\System\\Core\\Service</title>
<path fill="none" stroke="black" d="M590.025,-1073.36C557.912,-1068.73 515.368,-1062.59 484.134,-1058.08"/>
<polygon fill="none" stroke="black" points="484.404,-1054.58 474.006,-1056.62 483.404,-1061.51 484.404,-1054.58"/>
</g>
<!-- \\Application\\Domain\\Repository\\TypeRepository -->
<g id="node14" class="node"><title>\\Application\\Domain\\Repository\\TypeRepository</title>
<polygon fill="none" stroke="black" points="691,-1016 581,-1016 581,-980 691,-980 691,-1016"/>
<text text-anchor="middle" x="636" y="-995.1" font-family="Courier,monospace" font-size="11.00">TypeRepository</text>
</g>
<!-- \\System\\Core\\Repository -->
<g id="node39" class="node"><title>\\System\\Core\\Repository</title>
<polygon fill="none" stroke="black" points="484,-962 400,-962 400,-926 484,-926 484,-962"/>
<text text-anchor="middle" x="442" y="-941.1" font-family="Courier,monospace" font-size="11.00">Repository</text>
</g>
<!-- \\Application\\Domain\\Repository\\TypeRepository&#45;&gt;\\System\\Core\\Repository -->
<g id="edge47" class="edge"><title>\\Application\\Domain\\Repository\\TypeRepository&#45;&gt;\\System\\Core\\Repository</title>
<path fill="none" stroke="black" d="M580.407,-982.526C553.204,-974.954 520.652,-965.893 493.953,-958.461"/>
<polygon fill="none" stroke="black" points="494.602,-955.009 484.03,-955.699 492.725,-961.752 494.602,-955.009"/>
</g>
<!-- \\Application\\Domain\\Repository\\ItemRepository -->
<g id="node15" class="node"><title>\\Application\\Domain\\Repository\\ItemRepository</title>
<polygon fill="none" stroke="black" points="691,-962 581,-962 581,-926 691,-926 691,-962"/>
<text text-anchor="middle" x="636" y="-941.1" font-family="Courier,monospace" font-size="11.00">ItemRepository</text>
</g>
<!-- \\Application\\Domain\\Repository\\ItemRepository&#45;&gt;\\System\\Core\\Repository -->
<g id="edge57" class="edge"><title>\\Application\\Domain\\Repository\\ItemRepository&#45;&gt;\\System\\Core\\Repository</title>
<path fill="none" stroke="black" d="M580.407,-944C553.324,-944 520.938,-944 494.306,-944"/>
<polygon fill="none" stroke="black" points="494.03,-940.5 484.03,-944 494.03,-947.5 494.03,-940.5"/>
</g>
<!-- \\Application\\Controller\\Factory -->
<g id="node17" class="node"><title>\\Application\\Controller\\Factory</title>
<polygon fill="none" stroke="black" points="668,-872 604,-872 604,-836 668,-836 668,-872"/>
<text text-anchor="middle" x="636" y="-851.1" font-family="Courier,monospace" font-size="11.00">Factory</text>
</g>
<!-- \\System\\Core\\ControllerFactory -->
<g id="node47" class="node"><title>\\System\\Core\\ControllerFactory</title>
<polygon fill="none" stroke="black" points="507,-800 377,-800 377,-764 507,-764 507,-800"/>
<text text-anchor="middle" x="442" y="-779.1" font-family="Courier,monospace" font-size="11.00">ControllerFactory</text>
</g>
<!-- \\Application\\Controller\\Factory&#45;&gt;\\System\\Core\\ControllerFactory -->
<g id="edge21" class="edge"><title>\\Application\\Controller\\Factory&#45;&gt;\\System\\Core\\ControllerFactory</title>
<path fill="none" stroke="black" d="M603.942,-844.691C589.107,-840.002 571.4,-833.857 556,-827 541.093,-820.362 538.931,-815.583 524,-809 519.877,-807.182 515.592,-805.419 511.239,-803.723"/>
<polygon fill="none" stroke="black" points="512.231,-800.357 501.639,-800.121 509.772,-806.911 512.231,-800.357"/>
</g>
<!-- \\Application\\Controller\\Test -->
<g id="node18" class="node"><title>\\Application\\Controller\\Test</title>
<polygon fill="none" stroke="black" points="663,-818 609,-818 609,-782 663,-782 663,-818"/>
<text text-anchor="middle" x="636" y="-797.1" font-family="Courier,monospace" font-size="11.00">Test</text>
</g>
<!-- \\System\\Core\\BaseController -->
<g id="node49" class="node"><title>\\System\\Core\\BaseController</title>
<polygon fill="none" stroke="black" points="497,-692 387,-692 387,-656 497,-656 497,-692"/>
<text text-anchor="middle" x="442" y="-671.1" font-family="Courier,monospace" font-size="11.00">BaseController</text>
</g>
<!-- \\Application\\Controller\\Test&#45;&gt;\\System\\Core\\BaseController -->
<g id="edge49" class="edge"><title>\\Application\\Controller\\Test&#45;&gt;\\System\\Core\\BaseController</title>
<path fill="none" stroke="black" d="M608.675,-798.471C591.718,-796.195 570.478,-790.766 556,-778 528.203,-753.49 551.179,-726.194 524,-701 518.978,-696.345 513.137,-692.491 506.929,-689.302"/>
<polygon fill="none" stroke="black" points="508.177,-686.025 497.623,-685.087 505.289,-692.401 508.177,-686.025"/>
</g>
<!-- \\Application\\Application -->
<g id="node19" class="node"><title>\\Application\\Application</title>
<polygon fill="none" stroke="black" points="681,-764 591,-764 591,-728 681,-728 681,-764"/>
<text text-anchor="middle" x="636" y="-743.1" font-family="Courier,monospace" font-size="11.00">Application</text>
</g>
<!-- \\System\\Core\\BaseApplication -->
<g id="node54" class="node"><title>\\System\\Core\\BaseApplication</title>
<polygon fill="none" stroke="black" points="501,-402 383,-402 383,-366 501,-366 501,-402"/>
<text text-anchor="middle" x="442" y="-381.1" font-family="Courier,monospace" font-size="11.00">BaseApplication</text>
</g>
<!-- \\Application\\Application&#45;&gt;\\System\\Core\\BaseApplication -->
<g id="edge37" class="edge"><title>\\Application\\Application&#45;&gt;\\System\\Core\\BaseApplication</title>
<path fill="none" stroke="black" d="M590.108,-742.938C577.298,-739.804 564.559,-734.117 556,-724 465.685,-617.242 611.634,-519.97 524,-411 520.149,-406.211 515.428,-402.264 510.215,-399.011"/>
<polygon fill="none" stroke="black" points="511.52,-395.743 501.043,-394.167 508.251,-401.932 511.52,-395.743"/>
</g>
<!-- \\System\\Core\\Exception\\Validation -->
<g id="node23" class="node"><title>\\System\\Core\\Exception\\Validation</title>
<polygon fill="none" stroke="black" points="484,-618 400,-618 400,-582 484,-582 484,-618"/>
<text text-anchor="middle" x="442" y="-597.1" font-family="Courier,monospace" font-size="11.00">Validation</text>
</g>
<!-- \\Exception -->
<g id="node69" class="node"><title>\\Exception</title>
<ellipse fill="none" stroke="black" cx="241" cy="-18" rx="62.9325" ry="18.3848"/>
<text text-anchor="middle" x="241" y="-14.4" font-family="Times Roman,serif" font-size="14.00" fill="gray">\Exception</text>
</g>
<!-- \\System\\Core\\Exception\\Validation&#45;&gt;\\Exception -->
<g id="edge17" class="edge"><title>\\System\\Core\\Exception\\Validation&#45;&gt;\\Exception</title>
<path fill="none" stroke="black" d="M399.783,-589.608C390.886,-585.685 382.298,-580.32 376,-573 340.513,-531.759 266.656,-153.345 246.296,-46.1686"/>
<polygon fill="none" stroke="black" points="249.691,-45.2847 244.392,-36.1105 242.813,-46.5871 249.691,-45.2847"/>
</g>
<!-- \\System\\Core\\Exception\\Database -->
<g id="node24" class="node"><title>\\System\\Core\\Exception\\Database</title>
<polygon fill="none" stroke="black" points="477,-564 407,-564 407,-528 477,-528 477,-564"/>
<text text-anchor="middle" x="442" y="-543.1" font-family="Courier,monospace" font-size="11.00">Database</text>
</g>
<!-- \\System\\Core\\Exception\\Database&#45;&gt;\\Exception -->
<g id="edge35" class="edge"><title>\\System\\Core\\Exception\\Database&#45;&gt;\\Exception</title>
<path fill="none" stroke="black" d="M406.193,-540.858C395.212,-537.65 383.945,-532.445 376,-524 308.74,-452.504 258.899,-141.628 244.944,-46.0571"/>
<polygon fill="none" stroke="black" points="248.384,-45.3901 243.491,-35.9927 241.456,-46.3901 248.384,-45.3901"/>
</g>
<!-- \\System\\Core\\Database\\QueryParam -->
<g id="node27" class="node"><title>\\System\\Core\\Database\\QueryParam</title>
<polygon fill="none" stroke="black" points="484,-2096 400,-2096 400,-2060 484,-2060 484,-2096"/>
<text text-anchor="middle" x="442" y="-2075.1" font-family="Courier,monospace" font-size="11.00">QueryParam</text>
</g>
<!-- \\System\\Core\\Database\\ForeignField -->
<g id="node28" class="node"><title>\\System\\Core\\Database\\ForeignField</title>
<polygon fill="none" stroke="black" points="491,-1934 393,-1934 393,-1898 491,-1898 491,-1934"/>
<text text-anchor="middle" x="442" y="-1913.1" font-family="Courier,monospace" font-size="11.00">ForeignField</text>
</g>
<!-- \\System\\Core\\Database\\DataField -->
<g id="node32" class="node"><title>\\System\\Core\\Database\\DataField</title>
<polygon fill="none" stroke="black" points="279,-1988 203,-1988 203,-1952 279,-1952 279,-1988"/>
<text text-anchor="middle" x="241" y="-1967.1" font-family="Courier,monospace" font-size="11.00">DataField</text>
</g>
<!-- \\System\\Core\\Database\\ForeignField&#45;&gt;\\System\\Core\\Database\\DataField -->
<g id="edge27" class="edge"><title>\\System\\Core\\Database\\ForeignField&#45;&gt;\\System\\Core\\Database\\DataField</title>
<path fill="none" stroke="black" d="M392.83,-1929.21C361.368,-1937.66 320.732,-1948.58 289.418,-1956.99"/>
<polygon fill="none" stroke="black" points="288.352,-1953.65 279.602,-1959.63 290.168,-1960.41 288.352,-1953.65"/>
</g>
<!-- \\System\\Core\\Database\\CustomField -->
<g id="node29" class="node"><title>\\System\\Core\\Database\\CustomField</title>
<polygon fill="none" stroke="black" points="487,-2042 397,-2042 397,-2006 487,-2006 487,-2042"/>
<text text-anchor="middle" x="442" y="-2021.1" font-family="Courier,monospace" font-size="11.00">CustomField</text>
</g>
<!-- \\System\\Core\\Database\\CustomField&#45;&gt;\\System\\Core\\Database\\DataField -->
<g id="edge29" class="edge"><title>\\System\\Core\\Database\\CustomField&#45;&gt;\\System\\Core\\Database\\DataField</title>
<path fill="none" stroke="black" d="M396.39,-2011.75C364.48,-2003.17 321.919,-1991.74 289.409,-1983.01"/>
<polygon fill="none" stroke="black" points="290.231,-1979.6 279.666,-1980.39 288.415,-1986.36 290.231,-1979.6"/>
</g>
<!-- \\System\\Core\\Database\\QueryParams -->
<g id="node30" class="node"><title>\\System\\Core\\Database\\QueryParams</title>
<polygon fill="none" stroke="black" points="487,-1772 397,-1772 397,-1736 487,-1736 487,-1772"/>
<text text-anchor="middle" x="442" y="-1751.1" font-family="Courier,monospace" font-size="11.00">QueryParams</text>
</g>
<!-- \\System\\Core\\ObjectList -->
<g id="node58" class="node"><title>\\System\\Core\\ObjectList</title>
<polygon fill="none" stroke="black" points="283,-1719 199,-1719 199,-1683 283,-1683 283,-1719"/>
<text text-anchor="middle" x="241" y="-1698.1" font-family="Courier,monospace" font-size="11.00">ObjectList</text>
</g>
<!-- \\System\\Core\\Database\\QueryParams&#45;&gt;\\System\\Core\\ObjectList -->
<g id="edge43" class="edge"><title>\\System\\Core\\Database\\QueryParams&#45;&gt;\\System\\Core\\ObjectList</title>
<path fill="none" stroke="black" d="M396.39,-1741.97C365.662,-1733.87 325.059,-1723.16 293.064,-1714.73"/>
<polygon fill="none" stroke="black" points="293.564,-1711.24 283.002,-1712.08 291.779,-1718.01 293.564,-1711.24"/>
</g>
<!-- \\System\\Core\\Database\\ConnectionData -->
<g id="node31" class="node"><title>\\System\\Core\\Database\\ConnectionData</title>
<polygon fill="none" stroke="black" points="497,-1880 387,-1880 387,-1844 497,-1844 497,-1880"/>
<text text-anchor="middle" x="442" y="-1859.1" font-family="Courier,monospace" font-size="11.00">ConnectionData</text>
</g>
<!-- \\System\\Core\\Database\\Database -->
<g id="node33" class="node"><title>\\System\\Core\\Database\\Database</title>
<polygon fill="none" stroke="black" points="477,-1826 407,-1826 407,-1790 477,-1790 477,-1826"/>
<text text-anchor="middle" x="442" y="-1805.1" font-family="Courier,monospace" font-size="11.00">Database</text>
</g>
<!-- \\System\\Core\\Database\\TableField -->
<g id="node34" class="node"><title>\\System\\Core\\Database\\TableField</title>
<polygon fill="none" stroke="black" points="484,-1988 400,-1988 400,-1952 484,-1952 484,-1988"/>
<text text-anchor="middle" x="442" y="-1967.1" font-family="Courier,monospace" font-size="11.00">TableField</text>
</g>
<!-- \\System\\Core\\Database\\TableField&#45;&gt;\\System\\Core\\Database\\DataField -->
<g id="edge55" class="edge"><title>\\System\\Core\\Database\\TableField&#45;&gt;\\System\\Core\\Database\\DataField</title>
<path fill="none" stroke="black" d="M399.864,-1970C367.732,-1970 323.419,-1970 289.757,-1970"/>
<polygon fill="none" stroke="black" points="289.677,-1966.5 279.677,-1970 289.677,-1973.5 289.677,-1966.5"/>
</g>
<!-- \\System\\Core\\Session -->
<g id="node36" class="node"><title>\\System\\Core\\Session</title>
<polygon fill="none" stroke="black" points="474,-1610 410,-1610 410,-1574 474,-1574 474,-1610"/>
<text text-anchor="middle" x="442" y="-1589.1" font-family="Courier,monospace" font-size="11.00">Session</text>
</g>
<!-- \\System\\Core\\ValidationRule -->
<g id="node37" class="node"><title>\\System\\Core\\ValidationRule</title>
<polygon fill="none" stroke="black" points="497,-1556 387,-1556 387,-1520 497,-1520 497,-1556"/>
<text text-anchor="middle" x="442" y="-1535.1" font-family="Courier,monospace" font-size="11.00">ValidationRule</text>
</g>
<!-- \\System\\Core\\DataContainer -->
<g id="node38" class="node"><title>\\System\\Core\\DataContainer</title>
<polygon fill="none" stroke="black" points="293,-908 189,-908 189,-872 293,-872 293,-908"/>
<text text-anchor="middle" x="241" y="-887.1" font-family="Courier,monospace" font-size="11.00">DataContainer</text>
</g>
<!-- \\System\\Core\\Log -->
<g id="node40" class="node"><title>\\System\\Core\\Log</title>
<polygon fill="none" stroke="black" points="469,-1448 415,-1448 415,-1412 469,-1412 469,-1448"/>
<text text-anchor="middle" x="442" y="-1427.1" font-family="Courier,monospace" font-size="11.00">Log</text>
</g>
<!-- \\System\\Core\\Action -->
<g id="node41" class="node"><title>\\System\\Core\\Action</title>
<polygon fill="none" stroke="black" points="470,-1394 414,-1394 414,-1358 470,-1358 470,-1394"/>
<text text-anchor="middle" x="442" y="-1373.1" font-family="Courier,monospace" font-size="11.00">Action</text>
</g>
<!-- \\System\\Core\\Template -->
<g id="node42" class="node"><title>\\System\\Core\\Template</title>
<polygon fill="none" stroke="black" points="477,-1340 407,-1340 407,-1304 477,-1304 477,-1340"/>
<text text-anchor="middle" x="442" y="-1319.1" font-family="Courier,monospace" font-size="11.00">Template</text>
</g>
<!-- \\System\\Core\\Router -->
<g id="node43" class="node"><title>\\System\\Core\\Router</title>
<polygon fill="none" stroke="black" points="470,-1286 414,-1286 414,-1250 470,-1250 470,-1286"/>
<text text-anchor="middle" x="442" y="-1265.1" font-family="Courier,monospace" font-size="11.00">Router</text>
</g>
<!-- \\System\\Core\\ConfigLoader -->
<g id="node44" class="node"><title>\\System\\Core\\ConfigLoader</title>
<polygon fill="none" stroke="black" points="491,-1232 393,-1232 393,-1196 491,-1196 491,-1232"/>
<text text-anchor="middle" x="442" y="-1211.1" font-family="Courier,monospace" font-size="11.00">ConfigLoader</text>
</g>
<!-- \\System\\Core\\Environment -->
<g id="node45" class="node"><title>\\System\\Core\\Environment</title>
<polygon fill="none" stroke="black" points="487,-1178 397,-1178 397,-1142 487,-1142 487,-1178"/>
<text text-anchor="middle" x="442" y="-1157.1" font-family="Courier,monospace" font-size="11.00">Environment</text>
</g>
<!-- \\System\\Core\\Registry -->
<g id="node46" class="node"><title>\\System\\Core\\Registry</title>
<polygon fill="none" stroke="black" points="477,-1124 407,-1124 407,-1088 477,-1088 477,-1124"/>
<text text-anchor="middle" x="442" y="-1103.1" font-family="Courier,monospace" font-size="11.00">Registry</text>
</g>
<!-- \\System\\Core\\Registry&#45;&gt;\\System\\Core\\DataContainer -->
<g id="edge25" class="edge"><title>\\System\\Core\\Registry&#45;&gt;\\System\\Core\\DataContainer</title>
<path fill="none" stroke="black" d="M406.442,-1095.66C395.967,-1091.54 384.931,-1086.07 376,-1079 318.624,-1033.6 274.76,-957.603 254.08,-917.196"/>
<polygon fill="none" stroke="black" points="257.175,-915.561 249.558,-908.197 250.921,-918.704 257.175,-915.561"/>
</g>
<!-- \\System\\Core\\AssetManager -->
<g id="node48" class="node"><title>\\System\\Core\\AssetManager</title>
<polygon fill="none" stroke="black" points="491,-1016 393,-1016 393,-980 491,-980 491,-1016"/>
<text text-anchor="middle" x="442" y="-995.1" font-family="Courier,monospace" font-size="11.00">AssetManager</text>
</g>
<!-- \\System\\Core\\Request -->
<g id="node50" class="node"><title>\\System\\Core\\Request</title>
<polygon fill="none" stroke="black" points="474,-908 410,-908 410,-872 474,-872 474,-908"/>
<text text-anchor="middle" x="442" y="-887.1" font-family="Courier,monospace" font-size="11.00">Request</text>
</g>
<!-- \\System\\Core\\Request&#45;&gt;\\System\\Core\\DataContainer -->
<g id="edge39" class="edge"><title>\\System\\Core\\Request&#45;&gt;\\System\\Core\\DataContainer</title>
<path fill="none" stroke="black" d="M409.706,-890C381.122,-890 338.601,-890 303.4,-890"/>
<polygon fill="none" stroke="black" points="303.21,-886.5 293.21,-890 303.21,-893.5 303.21,-886.5"/>
</g>
<!-- \\System\\Core\\Renderer -->
<g id="node51" class="node"><title>\\System\\Core\\Renderer</title>
<polygon fill="none" stroke="black" points="477,-854 407,-854 407,-818 477,-818 477,-854"/>
<text text-anchor="middle" x="442" y="-833.1" font-family="Courier,monospace" font-size="11.00">Renderer</text>
</g>
<!-- \\System\\Core\\Config -->
<g id="node53" class="node"><title>\\System\\Core\\Config</title>
<polygon fill="none" stroke="black" points="470,-746 414,-746 414,-710 470,-710 470,-746"/>
<text text-anchor="middle" x="442" y="-725.1" font-family="Courier,monospace" font-size="11.00">Config</text>
</g>
<!-- \\System\\Core\\Config&#45;&gt;\\System\\Core\\DataContainer -->
<g id="edge45" class="edge"><title>\\System\\Core\\Config&#45;&gt;\\System\\Core\\DataContainer</title>
<path fill="none" stroke="black" d="M413.276,-735.467C400.854,-739.72 386.737,-746.032 376,-755 330.297,-793.177 350.687,-831.032 304,-868 303.265,-868.582 302.513,-869.149 301.747,-869.702"/>
<polygon fill="none" stroke="black" points="299.711,-866.846 293.054,-875.088 303.398,-872.796 299.711,-866.846"/>
</g>
<!-- \\System\\Core\\ValidationRules -->
<g id="node55" class="node"><title>\\System\\Core\\ValidationRules</title>
<polygon fill="none" stroke="black" points="501,-1718 383,-1718 383,-1682 501,-1682 501,-1718"/>
<text text-anchor="middle" x="442" y="-1697.1" font-family="Courier,monospace" font-size="11.00">ValidationRules</text>
</g>
<!-- \\System\\Core\\ValidationRules&#45;&gt;\\System\\Core\\ObjectList -->
<g id="edge51" class="edge"><title>\\System\\Core\\ValidationRules&#45;&gt;\\System\\Core\\ObjectList</title>
<path fill="none" stroke="black" d="M382.781,-1700.29C354.44,-1700.44 320.799,-1700.6 293.399,-1700.74"/>
<polygon fill="none" stroke="black" points="293.21,-1697.24 283.228,-1700.79 293.245,-1704.24 293.21,-1697.24"/>
</g>
<!-- \\System\\Core\\OutputType -->
<g id="node56" class="node"><title>\\System\\Core\\OutputType</title>
<polygon fill="none" stroke="black" points="484,-510 400,-510 400,-474 484,-474 484,-510"/>
<text text-anchor="middle" x="442" y="-489.1" font-family="Courier,monospace" font-size="11.00">OutputType</text>
</g>
<!-- \\System\\Core\\Response -->
<g id="node57" class="node"><title>\\System\\Core\\Response</title>
<polygon fill="none" stroke="black" points="477,-456 407,-456 407,-420 477,-420 477,-456"/>
<text text-anchor="middle" x="442" y="-435.1" font-family="Courier,monospace" font-size="11.00">Response</text>
</g>
<!-- \\Iterator -->
<g id="node88" class="node"><title>\\Iterator</title>
<ellipse fill="none" stroke="black" cx="53" cy="-1701" rx="51.8276" ry="18.3848"/>
<text text-anchor="middle" x="53" y="-1697.4" font-family="Times Roman,serif" font-size="14.00" fill="gray">\Iterator</text>
</g>
<!-- \\System\\Core\\ObjectList&#45;&gt;\\Iterator -->
<g id="edge53" class="edge"><title>\\System\\Core\\ObjectList&#45;&gt;\\Iterator</title>
<path fill="none" stroke="black" stroke-dasharray="1,5" d="M198.809,-1701C174.426,-1701 143.28,-1701 116.039,-1701"/>
<polygon fill="none" stroke="black" points="115.812,-1697.5 105.812,-1701 115.812,-1704.5 115.812,-1697.5"/>
</g>
<!-- \\System\\Helper\\Image -->
<g id="node61" class="node"><title>\\System\\Helper\\Image</title>
<polygon fill="none" stroke="black" points="469,-320 415,-320 415,-284 469,-284 469,-320"/>
<text text-anchor="middle" x="442" y="-299.1" font-family="Courier,monospace" font-size="11.00">Image</text>
</g>
<!-- \\System\\Helper\\Curl -->
<g id="node62" class="node"><title>\\System\\Helper\\Curl</title>
<polygon fill="none" stroke="black" points="469,-266 415,-266 415,-230 469,-230 469,-266"/>
<text text-anchor="middle" x="442" y="-245.1" font-family="Courier,monospace" font-size="11.00">Curl</text>
</g>
<!-- \\System\\Helper\\File -->
<g id="node63" class="node"><title>\\System\\Helper\\File</title>
<polygon fill="none" stroke="black" points="469,-212 415,-212 415,-176 469,-176 469,-212"/>
<text text-anchor="middle" x="442" y="-191.1" font-family="Courier,monospace" font-size="11.00">File</text>
</g>
<!-- \\System\\Helper\\Validator -->
<g id="node64" class="node"><title>\\System\\Helper\\Validator</title>
<polygon fill="none" stroke="black" points="480,-158 404,-158 404,-122 480,-122 480,-158"/>
<text text-anchor="middle" x="442" y="-137.1" font-family="Courier,monospace" font-size="11.00">Validator</text>
</g>
<!-- \\System\\Helper\\DateTime -->
<g id="node65" class="node"><title>\\System\\Helper\\DateTime</title>
<polygon fill="none" stroke="black" points="477,-104 407,-104 407,-68 477,-68 477,-104"/>
<text text-anchor="middle" x="442" y="-83.1" font-family="Courier,monospace" font-size="11.00">DateTime</text>
</g>
<!-- \\SplClassLoader -->
<g id="node66" class="node"><title>\\SplClassLoader</title>
<polygon fill="none" stroke="black" points="691,-399 581,-399 581,-363 691,-363 691,-399"/>
<text text-anchor="middle" x="636" y="-378.1" font-family="Courier,monospace" font-size="11.00">SplClassLoader</text>
</g>
</g>
</svg>
