<?xml version="1.0" encoding="UTF-8" standalone="no"?>
<!DOCTYPE svg PUBLIC "-//W3C//DTD SVG 1.1//EN"
 "http://www.w3.org/Graphics/SVG/1.1/DTD/svg11.dtd">
<!-- Generated by graphviz version 2.26.3 (20100126.1600)
 -->
<!-- Title: G Pages: 1 -->
<svg width="740pt" height="2286pt"
 viewBox="0.00 0.00 740.00 2286.00" xmlns="http://www.w3.org/2000/svg" xmlns:xlink="http://www.w3.org/1999/xlink">
<g id="graph1" class="graph" transform="scale(1 1) rotate(0) translate(4 2282)">
<title>G</title>
<polygon fill="white" stroke="white" points="-4,5 -4,-2282 737,-2282 737,5 -4,5"/>
<g id="graph2" class="cluster"><title>cluster_Global</title>
<polyline fill="none" stroke="gray" points="177,-44 712,-44 "/>
<path fill="none" stroke="gray" d="M712,-44C718,-44 724,-50 724,-56"/>
<polyline fill="none" stroke="gray" points="724,-56 724,-2258 "/>
<path fill="none" stroke="gray" d="M724,-2258C724,-2264 718,-2270 712,-2270"/>
<polyline fill="none" stroke="gray" points="712,-2270 177,-2270 "/>
<path fill="none" stroke="gray" d="M177,-2270C171,-2270 165,-2264 165,-2258"/>
<polyline fill="none" stroke="gray" points="165,-2258 165,-56 "/>
<path fill="none" stroke="gray" d="M165,-56C165,-50 171,-44 177,-44"/>
<text text-anchor="middle" x="444.5" y="-2256.1" font-family="Times Roman,serif" font-size="11.00" fill="gray">\</text>
</g>
<g id="graph3" class="cluster"><title>cluster_\Application</title>
<polyline fill="none" stroke="gray" points="568,-774 704,-774 "/>
<path fill="none" stroke="gray" d="M704,-774C710,-774 716,-780 716,-786"/>
<polyline fill="none" stroke="gray" points="716,-786 716,-1556 "/>
<path fill="none" stroke="gray" d="M716,-1556C716,-1562 710,-1568 704,-1568"/>
<polyline fill="none" stroke="gray" points="704,-1568 568,-1568 "/>
<path fill="none" stroke="gray" d="M568,-1568C562,-1568 556,-1562 556,-1556"/>
<polyline fill="none" stroke="gray" points="556,-1556 556,-786 "/>
<path fill="none" stroke="gray" d="M556,-786C556,-780 562,-774 568,-774"/>
<text text-anchor="middle" x="636" y="-1554.1" font-family="Times Roman,serif" font-size="11.00" fill="gray">Application</text>
</g>
<g id="graph4" class="cluster"><title>cluster_\Application\Database</title>
<polyline fill="none" stroke="gray" points="601,-1410 671,-1410 "/>
<path fill="none" stroke="gray" d="M671,-1410C677,-1410 683,-1416 683,-1422"/>
<polyline fill="none" stroke="gray" points="683,-1422 683,-1526 "/>
<path fill="none" stroke="gray" d="M683,-1526C683,-1532 677,-1538 671,-1538"/>
<polyline fill="none" stroke="gray" points="671,-1538 601,-1538 "/>
<path fill="none" stroke="gray" d="M601,-1538C595,-1538 589,-1532 589,-1526"/>
<polyline fill="none" stroke="gray" points="589,-1526 589,-1422 "/>
<path fill="none" stroke="gray" d="M589,-1422C589,-1416 595,-1410 601,-1410"/>
<text text-anchor="middle" x="636" y="-1524.1" font-family="Times Roman,serif" font-size="11.00" fill="gray">Database</text>
</g>
<g id="graph5" class="cluster"><title>cluster_\Application\Domain</title>
<polyline fill="none" stroke="gray" points="576,-964 696,-964 "/>
<path fill="none" stroke="gray" d="M696,-964C702,-964 708,-970 708,-976"/>
<polyline fill="none" stroke="gray" points="708,-976 708,-1390 "/>
<path fill="none" stroke="gray" d="M708,-1390C708,-1396 702,-1402 696,-1402"/>
<polyline fill="none" stroke="gray" points="696,-1402 576,-1402 "/>
<path fill="none" stroke="gray" d="M576,-1402C570,-1402 564,-1396 564,-1390"/>
<polyline fill="none" stroke="gray" points="564,-1390 564,-976 "/>
<path fill="none" stroke="gray" d="M564,-976C564,-970 570,-964 576,-964"/>
<text text-anchor="middle" x="636" y="-1388.1" font-family="Times Roman,serif" font-size="11.00" fill="gray">Domain</text>
</g>
<g id="graph6" class="cluster"><title>cluster_\Application\Domain\Entity</title>
<polyline fill="none" stroke="gray" points="588,-1190 684,-1190 "/>
<path fill="none" stroke="gray" d="M684,-1190C690,-1190 696,-1196 696,-1202"/>
<polyline fill="none" stroke="gray" points="696,-1202 696,-1360 "/>
<path fill="none" stroke="gray" d="M696,-1360C696,-1366 690,-1372 684,-1372"/>
<polyline fill="none" stroke="gray" points="684,-1372 588,-1372 "/>
<path fill="none" stroke="gray" d="M588,-1372C582,-1372 576,-1366 576,-1360"/>
<polyline fill="none" stroke="gray" points="576,-1360 576,-1202 "/>
<path fill="none" stroke="gray" d="M576,-1202C576,-1196 582,-1190 588,-1190"/>
<text text-anchor="middle" x="636" y="-1358.1" font-family="Times Roman,serif" font-size="11.00" fill="gray">Entity</text>
</g>
<g id="graph7" class="cluster"><title>cluster_\Application\Domain\Service</title>
<polyline fill="none" stroke="gray" points="594,-1108 678,-1108 "/>
<path fill="none" stroke="gray" d="M678,-1108C684,-1108 690,-1114 690,-1120"/>
<polyline fill="none" stroke="gray" points="690,-1120 690,-1170 "/>
<path fill="none" stroke="gray" d="M690,-1170C690,-1176 684,-1182 678,-1182"/>
<polyline fill="none" stroke="gray" points="678,-1182 594,-1182 "/>
<path fill="none" stroke="gray" d="M594,-1182C588,-1182 582,-1176 582,-1170"/>
<polyline fill="none" stroke="gray" points="582,-1170 582,-1120 "/>
<path fill="none" stroke="gray" d="M582,-1120C582,-1114 588,-1108 594,-1108"/>
<text text-anchor="middle" x="636" y="-1168.1" font-family="Times Roman,serif" font-size="11.00" fill="gray">Service</text>
</g>
<g id="graph8" class="cluster"><title>cluster_\Application\Domain\Repository</title>
<polyline fill="none" stroke="gray" points="584,-972 688,-972 "/>
<path fill="none" stroke="gray" d="M688,-972C694,-972 700,-978 700,-984"/>
<polyline fill="none" stroke="gray" points="700,-984 700,-1088 "/>
<path fill="none" stroke="gray" d="M700,-1088C700,-1094 694,-1100 688,-1100"/>
<polyline fill="none" stroke="gray" points="688,-1100 584,-1100 "/>
<path fill="none" stroke="gray" d="M584,-1100C578,-1100 572,-1094 572,-1088"/>
<polyline fill="none" stroke="gray" points="572,-1088 572,-984 "/>
<path fill="none" stroke="gray" d="M572,-984C572,-978 578,-972 584,-972"/>
<text text-anchor="middle" x="636" y="-1086.1" font-family="Times Roman,serif" font-size="11.00" fill="gray">Repository</text>
</g>
<g id="graph9" class="cluster"><title>cluster_\Application\Controller</title>
<polyline fill="none" stroke="gray" points="608,-828 664,-828 "/>
<path fill="none" stroke="gray" d="M664,-828C670,-828 676,-834 676,-840"/>
<polyline fill="none" stroke="gray" points="676,-840 676,-944 "/>
<path fill="none" stroke="gray" d="M676,-944C676,-950 670,-956 664,-956"/>
<polyline fill="none" stroke="gray" points="664,-956 608,-956 "/>
<path fill="none" stroke="gray" d="M608,-956C602,-956 596,-950 596,-944"/>
<polyline fill="none" stroke="gray" points="596,-944 596,-840 "/>
<path fill="none" stroke="gray" d="M596,-840C596,-834 602,-828 608,-828"/>
<text text-anchor="middle" x="636" y="-942.1" font-family="Times Roman,serif" font-size="11.00" fill="gray">Controller</text>
</g>
<g id="graph10" class="cluster"><title>cluster_\System</title>
<polyline fill="none" stroke="gray" points="185,-52 512,-52 "/>
<path fill="none" stroke="gray" d="M512,-52C518,-52 524,-58 524,-64"/>
<polyline fill="none" stroke="gray" points="524,-64 524,-2228 "/>
<path fill="none" stroke="gray" d="M524,-2228C524,-2234 518,-2240 512,-2240"/>
<polyline fill="none" stroke="gray" points="512,-2240 185,-2240 "/>
<path fill="none" stroke="gray" d="M185,-2240C179,-2240 173,-2234 173,-2228"/>
<polyline fill="none" stroke="gray" points="173,-2228 173,-64 "/>
<path fill="none" stroke="gray" d="M173,-64C173,-58 179,-52 185,-52"/>
<text text-anchor="middle" x="348.5" y="-2226.1" font-family="Times Roman,serif" font-size="11.00" fill="gray">System</text>
</g>
<g id="graph11" class="cluster"><title>cluster_\System\Core</title>
<polyline fill="none" stroke="gray" points="193,-358 504,-358 "/>
<path fill="none" stroke="gray" d="M504,-358C510,-358 516,-364 516,-370"/>
<polyline fill="none" stroke="gray" points="516,-370 516,-2198 "/>
<path fill="none" stroke="gray" d="M516,-2198C516,-2204 510,-2210 504,-2210"/>
<polyline fill="none" stroke="gray" points="504,-2210 193,-2210 "/>
<path fill="none" stroke="gray" d="M193,-2210C187,-2210 181,-2204 181,-2198"/>
<polyline fill="none" stroke="gray" points="181,-2198 181,-370 "/>
<path fill="none" stroke="gray" d="M181,-370C181,-364 187,-358 193,-358"/>
<text text-anchor="middle" x="348.5" y="-2196.1" font-family="Times Roman,serif" font-size="11.00" fill="gray">Core</text>
</g>
<g id="graph12" class="cluster"><title>cluster_\System\Core\Exception</title>
<polyline fill="none" stroke="gray" points="404,-574 480,-574 "/>
<path fill="none" stroke="gray" d="M480,-574C486,-574 492,-580 492,-586"/>
<polyline fill="none" stroke="gray" points="492,-586 492,-690 "/>
<path fill="none" stroke="gray" d="M492,-690C492,-696 486,-702 480,-702"/>
<polyline fill="none" stroke="gray" points="480,-702 404,-702 "/>
<path fill="none" stroke="gray" d="M404,-702C398,-702 392,-696 392,-690"/>
<polyline fill="none" stroke="gray" points="392,-690 392,-586 "/>
<path fill="none" stroke="gray" d="M392,-586C392,-580 398,-574 404,-574"/>
<text text-anchor="middle" x="442" y="-688.1" font-family="Times Roman,serif" font-size="11.00" fill="gray">Exception</text>
</g>
<g id="graph13" class="cluster"><title>cluster_\System\Core\Database</title>
<polyline fill="none" stroke="gray" points="206,-1728 494,-1728 "/>
<path fill="none" stroke="gray" d="M494,-1728C500,-1728 506,-1734 506,-1740"/>
<polyline fill="none" stroke="gray" points="506,-1740 506,-2168 "/>
<path fill="none" stroke="gray" d="M506,-2168C506,-2174 500,-2180 494,-2180"/>
<polyline fill="none" stroke="gray" points="494,-2180 206,-2180 "/>
<path fill="none" stroke="gray" d="M206,-2180C200,-2180 194,-2174 194,-2168"/>
<polyline fill="none" stroke="gray" points="194,-2168 194,-1740 "/>
<path fill="none" stroke="gray" d="M194,-1740C194,-1734 200,-1728 206,-1728"/>
<text text-anchor="middle" x="350" y="-2166.1" font-family="Times Roman,serif" font-size="11.00" fill="gray">Database</text>
</g>
<g id="graph14" class="cluster"><title>cluster_\System\Helper</title>
<polyline fill="none" stroke="gray" points="407,-60 477,-60 "/>
<path fill="none" stroke="gray" d="M477,-60C483,-60 489,-66 489,-72"/>
<polyline fill="none" stroke="gray" points="489,-72 489,-338 "/>
<path fill="none" stroke="gray" d="M489,-338C489,-344 483,-350 477,-350"/>
<polyline fill="none" stroke="gray" points="477,-350 407,-350 "/>
<path fill="none" stroke="gray" d="M407,-350C401,-350 395,-344 395,-338"/>
<polyline fill="none" stroke="gray" points="395,-338 395,-72 "/>
<path fill="none" stroke="gray" d="M395,-72C395,-66 401,-60 407,-60"/>
<text text-anchor="middle" x="442" y="-336.1" font-family="Times Roman,serif" font-size="11.00" fill="gray">Helper</text>
</g>
<!-- \\Application\\Database\\ItemTable -->
<g id="node4" class="node"><title>\\Application\\Database\\ItemTable</title>
<polygon fill="none" stroke="black" points="674,-1508 598,-1508 598,-1472 674,-1472 674,-1508"/>
<text text-anchor="middle" x="636" y="-1487.1" font-family="Courier,monospace" font-size="11.00">ItemTable</text>
</g>
<!-- \\System\\Core\\Database\\Table -->
<g id="node26" class="node"><title>\\System\\Core\\Database\\Table</title>
<polygon fill="none" stroke="black" points="469,-2150 415,-2150 415,-2114 469,-2114 469,-2150"/>
<text text-anchor="middle" x="442" y="-2129.1" font-family="Courier,monospace" font-size="11.00">Table</text>
</g>
<!-- \\Application\\Database\\ItemTable&#45;&gt;\\System\\Core\\Database\\Table -->
<g id="edge15" class="edge"><title>\\Application\\Database\\ItemTable&#45;&gt;\\System\\Core\\Database\\Table</title>
<path fill="none" stroke="black" d="M635.144,-1508.01C630.445,-1599.49 604.979,-2012 524,-2105 512.777,-2117.89 495.284,-2124.65 479.333,-2128.19"/>
<polygon fill="none" stroke="black" points="478.347,-2124.81 469.155,-2130.08 479.626,-2131.7 478.347,-2124.81"/>
</g>
<!-- \\Application\\Database\\TypeTable -->
<g id="node5" class="node"><title>\\Application\\Database\\TypeTable</title>
<polygon fill="none" stroke="black" points="674,-1454 598,-1454 598,-1418 674,-1418 674,-1454"/>
<text text-anchor="middle" x="636" y="-1433.1" font-family="Courier,monospace" font-size="11.00">TypeTable</text>
</g>
<!-- \\Application\\Database\\TypeTable&#45;&gt;\\System\\Core\\Database\\Table -->
<g id="edge41" class="edge"><title>\\Application\\Database\\TypeTable&#45;&gt;\\System\\Core\\Database\\Table</title>
<path fill="none" stroke="black" d="M597.109,-1439.78C581.865,-1443.35 565.727,-1450.14 556,-1463 469.832,-1576.93 610.59,-1991.39 524,-2105 513.391,-2118.92 495.401,-2125.76 478.969,-2129.08"/>
<polygon fill="none" stroke="black" points="478.315,-2125.64 469.02,-2130.72 479.457,-2132.55 478.315,-2125.64"/>
</g>
<!-- \\Application\\Domain\\Entity\\ItemValidator -->
<g id="node8" class="node"><title>\\Application\\Domain\\Entity\\ItemValidator</title>
<polygon fill="none" stroke="black" points="688,-1342 584,-1342 584,-1306 688,-1306 688,-1342"/>
<text text-anchor="middle" x="636" y="-1321.1" font-family="Courier,monospace" font-size="11.00">ItemValidator</text>
</g>
<!-- \\System\\Core\\EntityValidator -->
<g id="node58" class="node"><title>\\System\\Core\\EntityValidator</title>
<polygon fill="none" stroke="black" points="501,-1664 383,-1664 383,-1628 501,-1628 501,-1664"/>
<text text-anchor="middle" x="442" y="-1643.1" font-family="Courier,monospace" font-size="11.00">EntityValidator</text>
</g>
<!-- \\Application\\Domain\\Entity\\ItemValidator&#45;&gt;\\System\\Core\\EntityValidator -->
<g id="edge19" class="edge"><title>\\Application\\Domain\\Entity\\ItemValidator&#45;&gt;\\System\\Core\\EntityValidator</title>
<path fill="none" stroke="black" d="M611.538,-1342C593.123,-1356.98 568.92,-1379.99 556,-1406 513.408,-1491.73 585.737,-1545.84 524,-1619 520.099,-1623.62 515.39,-1627.46 510.224,-1630.64"/>
<polygon fill="none" stroke="black" points="508.386,-1627.65 501.162,-1635.41 511.643,-1633.85 508.386,-1627.65"/>
</g>
<!-- \\Application\\Domain\\Entity\\Type -->
<g id="node9" class="node"><title>\\Application\\Domain\\Entity\\Type</title>
<polygon fill="none" stroke="black" points="663,-1288 609,-1288 609,-1252 663,-1252 663,-1288"/>
<text text-anchor="middle" x="636" y="-1267.1" font-family="Courier,monospace" font-size="11.00">Type</text>
</g>
<!-- \\System\\Core\\Entity -->
<g id="node35" class="node"><title>\\System\\Core\\Entity</title>
<polygon fill="none" stroke="black" points="470,-1502 414,-1502 414,-1466 470,-1466 470,-1502"/>
<text text-anchor="middle" x="442" y="-1481.1" font-family="Courier,monospace" font-size="11.00">Entity</text>
</g>
<!-- \\Application\\Domain\\Entity\\Type&#45;&gt;\\System\\Core\\Entity -->
<g id="edge31" class="edge"><title>\\Application\\Domain\\Entity\\Type&#45;&gt;\\System\\Core\\Entity</title>
<path fill="none" stroke="black" d="M608.809,-1272.3C591.241,-1275.25 569.262,-1281.92 556,-1297 508.108,-1351.46 572.093,-1402.72 524,-1457 512.993,-1469.42 496.164,-1476.15 480.61,-1479.79"/>
<polygon fill="none" stroke="black" points="479.778,-1476.38 470.647,-1481.76 481.136,-1483.25 479.778,-1476.38"/>
</g>
<!-- \\Application\\Domain\\Entity\\Item -->
<g id="node10" class="node"><title>\\Application\\Domain\\Entity\\Item</title>
<polygon fill="none" stroke="black" points="663,-1234 609,-1234 609,-1198 663,-1198 663,-1234"/>
<text text-anchor="middle" x="636" y="-1213.1" font-family="Courier,monospace" font-size="11.00">Item</text>
</g>
<!-- \\Application\\Domain\\Entity\\Item&#45;&gt;\\System\\Core\\Entity -->
<g id="edge33" class="edge"><title>\\Application\\Domain\\Entity\\Item&#45;&gt;\\System\\Core\\Entity</title>
<path fill="none" stroke="black" d="M608.953,-1218.03C591.216,-1220.85 568.983,-1227.49 556,-1243 494.277,-1316.75 585.995,-1383.48 524,-1457 513.3,-1469.69 496.513,-1476.45 480.907,-1480.04"/>
<polygon fill="none" stroke="black" points="480.054,-1476.64 470.898,-1481.97 481.38,-1483.52 480.054,-1476.64"/>
</g>
<!-- \\Application\\Domain\\Service\\ItemService -->
<g id="node12" class="node"><title>\\Application\\Domain\\Service\\ItemService</title>
<polygon fill="none" stroke="black" points="681,-1152 591,-1152 591,-1116 681,-1116 681,-1152"/>
<text text-anchor="middle" x="636" y="-1131.1" font-family="Courier,monospace" font-size="11.00">ItemService</text>
</g>
<!-- \\System\\Core\\Service -->
<g id="node51" class="node"><title>\\System\\Core\\Service</title>
<polygon fill="none" stroke="black" points="474,-1070 410,-1070 410,-1034 474,-1034 474,-1070"/>
<text text-anchor="middle" x="442" y="-1049.1" font-family="Courier,monospace" font-size="11.00">Service</text>
</g>
<!-- \\Application\\Domain\\Service\\ItemService&#45;&gt;\\System\\Core\\Service -->
<g id="edge23" class="edge"><title>\\Application\\Domain\\Service\\ItemService&#45;&gt;\\System\\Core\\Service</title>
<path fill="none" stroke="black" d="M590.488,-1119.66C578.924,-1115.29 566.739,-1110.02 556,-1104 540.257,-1095.17 539.919,-1087.5 524,-1079 511.569,-1072.36 497.207,-1066.95 484.01,-1062.77"/>
<polygon fill="none" stroke="black" points="484.781,-1059.35 474.196,-1059.81 482.76,-1066.05 484.781,-1059.35"/>
</g>
<!-- \\Application\\Domain\\Repository\\TypeRepository -->
<g id="node14" class="node"><title>\\Application\\Domain\\Repository\\TypeRepository</title>
<polygon fill="none" stroke="black" points="691,-1070 581,-1070 581,-1034 691,-1034 691,-1070"/>
<text text-anchor="middle" x="636" y="-1049.1" font-family="Courier,monospace" font-size="11.00">TypeRepository</text>
</g>
<!-- \\System\\Core\\Repository -->
<g id="node39" class="node"><title>\\System\\Core\\Repository</title>
<polygon fill="none" stroke="black" points="484,-1016 400,-1016 400,-980 484,-980 484,-1016"/>
<text text-anchor="middle" x="442" y="-995.1" font-family="Courier,monospace" font-size="11.00">Repository</text>
</g>
<!-- \\Application\\Domain\\Repository\\TypeRepository&#45;&gt;\\System\\Core\\Repository -->
<g id="edge47" class="edge"><title>\\Application\\Domain\\Repository\\TypeRepository&#45;&gt;\\System\\Core\\Repository</title>
<path fill="none" stroke="black" d="M580.407,-1036.53C553.204,-1028.95 520.652,-1019.89 493.953,-1012.46"/>
<polygon fill="none" stroke="black" points="494.602,-1009.01 484.03,-1009.7 492.725,-1015.75 494.602,-1009.01"/>
</g>
<!-- \\Application\\Domain\\Repository\\ItemRepository -->
<g id="node15" class="node"><title>\\Application\\Domain\\Repository\\ItemRepository</title>
<polygon fill="none" stroke="black" points="691,-1016 581,-1016 581,-980 691,-980 691,-1016"/>
<text text-anchor="middle" x="636" y="-995.1" font-family="Courier,monospace" font-size="11.00">ItemRepository</text>
</g>
<!-- \\Application\\Domain\\Repository\\ItemRepository&#45;&gt;\\System\\Core\\Repository -->
<g id="edge57" class="edge"><title>\\Application\\Domain\\Repository\\ItemRepository&#45;&gt;\\System\\Core\\Repository</title>
<path fill="none" stroke="black" d="M580.407,-998C553.324,-998 520.938,-998 494.306,-998"/>
<polygon fill="none" stroke="black" points="494.03,-994.5 484.03,-998 494.03,-1001.5 494.03,-994.5"/>
</g>
<!-- \\Application\\Controller\\Factory -->
<g id="node17" class="node"><title>\\Application\\Controller\\Factory</title>
<polygon fill="none" stroke="black" points="668,-926 604,-926 604,-890 668,-890 668,-926"/>
<text text-anchor="middle" x="636" y="-905.1" font-family="Courier,monospace" font-size="11.00">Factory</text>
</g>
<!-- \\System\\Core\\ControllerFactory -->
<g id="node47" class="node"><title>\\System\\Core\\ControllerFactory</title>
<polygon fill="none" stroke="black" points="507,-854 377,-854 377,-818 507,-818 507,-854"/>
<text text-anchor="middle" x="442" y="-833.1" font-family="Courier,monospace" font-size="11.00">ControllerFactory</text>
</g>
<!-- \\Application\\Controller\\Factory&#45;&gt;\\System\\Core\\ControllerFactory -->
<g id="edge21" class="edge"><title>\\Application\\Controller\\Factory&#45;&gt;\\System\\Core\\ControllerFactory</title>
<path fill="none" stroke="black" d="M603.942,-898.691C589.107,-894.002 571.4,-887.857 556,-881 541.093,-874.362 538.931,-869.583 524,-863 519.877,-861.182 515.592,-859.419 511.239,-857.723"/>
<polygon fill="none" stroke="black" points="512.231,-854.357 501.639,-854.121 509.772,-860.911 512.231,-854.357"/>
</g>
<!-- \\Application\\Controller\\Test -->
<g id="node18" class="node"><title>\\Application\\Controller\\Test</title>
<polygon fill="none" stroke="black" points="663,-872 609,-872 609,-836 663,-836 663,-872"/>
<text text-anchor="middle" x="636" y="-851.1" font-family="Courier,monospace" font-size="11.00">Test</text>
</g>
<!-- \\System\\Core\\BaseController -->
<g id="node48" class="node"><title>\\System\\Core\\BaseController</title>
<polygon fill="none" stroke="black" points="497,-746 387,-746 387,-710 497,-710 497,-746"/>
<text text-anchor="middle" x="442" y="-725.1" font-family="Courier,monospace" font-size="11.00">BaseController</text>
</g>
<!-- \\Application\\Controller\\Test&#45;&gt;\\System\\Core\\BaseController -->
<g id="edge49" class="edge"><title>\\Application\\Controller\\Test&#45;&gt;\\System\\Core\\BaseController</title>
<path fill="none" stroke="black" d="M608.675,-852.471C591.718,-850.195 570.478,-844.766 556,-832 528.203,-807.49 551.179,-780.194 524,-755 518.978,-750.345 513.137,-746.491 506.929,-743.302"/>
<polygon fill="none" stroke="black" points="508.177,-740.025 497.623,-739.087 505.289,-746.401 508.177,-740.025"/>
</g>
<!-- \\Application\\Application -->
<g id="node19" class="node"><title>\\Application\\Application</title>
<polygon fill="none" stroke="black" points="681,-818 591,-818 591,-782 681,-782 681,-818"/>
<text text-anchor="middle" x="636" y="-797.1" font-family="Courier,monospace" font-size="11.00">Application</text>
</g>
<!-- \\System\\Core\\BaseApplication -->
<g id="node53" class="node"><title>\\System\\Core\\BaseApplication</title>
<polygon fill="none" stroke="black" points="501,-456 383,-456 383,-420 501,-420 501,-456"/>
<text text-anchor="middle" x="442" y="-435.1" font-family="Courier,monospace" font-size="11.00">BaseApplication</text>
</g>
<!-- \\Application\\Application&#45;&gt;\\System\\Core\\BaseApplication -->
<g id="edge37" class="edge"><title>\\Application\\Application&#45;&gt;\\System\\Core\\BaseApplication</title>
<path fill="none" stroke="black" d="M590.108,-796.938C577.298,-793.804 564.559,-788.117 556,-778 465.685,-671.242 611.634,-573.97 524,-465 520.149,-460.211 515.428,-456.264 510.215,-453.011"/>
<polygon fill="none" stroke="black" points="511.52,-449.743 501.043,-448.167 508.251,-455.932 511.52,-449.743"/>
</g>
<!-- \\System\\Core\\Exception\\Validation -->
<g id="node23" class="node"><title>\\System\\Core\\Exception\\Validation</title>
<polygon fill="none" stroke="black" points="484,-672 400,-672 400,-636 484,-636 484,-672"/>
<text text-anchor="middle" x="442" y="-651.1" font-family="Courier,monospace" font-size="11.00">Validation</text>
</g>
<!-- \\Exception -->
<g id="node69" class="node"><title>\\Exception</title>
<ellipse fill="none" stroke="black" cx="241" cy="-18" rx="62.9325" ry="18.3848"/>
<text text-anchor="middle" x="241" y="-14.4" font-family="Times Roman,serif" font-size="14.00" fill="gray">\Exception</text>
</g>
<!-- \\System\\Core\\Exception\\Validation&#45;&gt;\\Exception -->
<g id="edge17" class="edge"><title>\\System\\Core\\Exception\\Validation&#45;&gt;\\Exception</title>
<path fill="none" stroke="black" d="M399.673,-643.701C390.781,-639.775 382.223,-634.384 376,-627 356.627,-604.014 269.281,-162.652 246.466,-46.0511"/>
<polygon fill="none" stroke="black" points="249.875,-45.246 244.522,-36.103 243.005,-46.5886 249.875,-45.246"/>
</g>
<!-- \\System\\Core\\Exception\\Database -->
<g id="node24" class="node"><title>\\System\\Core\\Exception\\Database</title>
<polygon fill="none" stroke="black" points="477,-618 407,-618 407,-582 477,-582 477,-618"/>
<text text-anchor="middle" x="442" y="-597.1" font-family="Courier,monospace" font-size="11.00">Database</text>
</g>
<!-- \\System\\Core\\Exception\\Database&#45;&gt;\\Exception -->
<g id="edge35" class="edge"><title>\\System\\Core\\Exception\\Database&#45;&gt;\\Exception</title>
<path fill="none" stroke="black" d="M406.416,-595.069C395.319,-591.878 383.924,-586.63 376,-578 338.848,-537.54 266.032,-154.063 246.131,-46.1383"/>
<polygon fill="none" stroke="black" points="249.521,-45.2216 244.272,-36.0189 242.637,-46.4868 249.521,-45.2216"/>
</g>
<!-- \\System\\Core\\Database\\QueryParam -->
<g id="node27" class="node"><title>\\System\\Core\\Database\\QueryParam</title>
<polygon fill="none" stroke="black" points="484,-2096 400,-2096 400,-2060 484,-2060 484,-2096"/>
<text text-anchor="middle" x="442" y="-2075.1" font-family="Courier,monospace" font-size="11.00">QueryParam</text>
</g>
<!-- \\System\\Core\\Database\\ForeignField -->
<g id="node28" class="node"><title>\\System\\Core\\Database\\ForeignField</title>
<polygon fill="none" stroke="black" points="491,-1934 393,-1934 393,-1898 491,-1898 491,-1934"/>
<text text-anchor="middle" x="442" y="-1913.1" font-family="Courier,monospace" font-size="11.00">ForeignField</text>
</g>
<!-- \\System\\Core\\Database\\DataField -->
<g id="node32" class="node"><title>\\System\\Core\\Database\\DataField</title>
<polygon fill="none" stroke="black" points="279,-1988 203,-1988 203,-1952 279,-1952 279,-1988"/>
<text text-anchor="middle" x="241" y="-1967.1" font-family="Courier,monospace" font-size="11.00">DataField</text>
</g>
<!-- \\System\\Core\\Database\\ForeignField&#45;&gt;\\System\\Core\\Database\\DataField -->
<g id="edge27" class="edge"><title>\\System\\Core\\Database\\ForeignField&#45;&gt;\\System\\Core\\Database\\DataField</title>
<path fill="none" stroke="black" d="M392.83,-1929.21C361.368,-1937.66 320.732,-1948.58 289.418,-1956.99"/>
<polygon fill="none" stroke="black" points="288.352,-1953.65 279.602,-1959.63 290.168,-1960.41 288.352,-1953.65"/>
</g>
<!-- \\System\\Core\\Database\\CustomField -->
<g id="node29" class="node"><title>\\System\\Core\\Database\\CustomField</title>
<polygon fill="none" stroke="black" points="487,-2042 397,-2042 397,-2006 487,-2006 487,-2042"/>
<text text-anchor="middle" x="442" y="-2021.1" font-family="Courier,monospace" font-size="11.00">CustomField</text>
</g>
<!-- \\System\\Core\\Database\\CustomField&#45;&gt;\\System\\Core\\Database\\DataField -->
<g id="edge29" class="edge"><title>\\System\\Core\\Database\\CustomField&#45;&gt;\\System\\Core\\Database\\DataField</title>
<path fill="none" stroke="black" d="M396.39,-2011.75C364.48,-2003.17 321.919,-1991.74 289.409,-1983.01"/>
<polygon fill="none" stroke="black" points="290.231,-1979.6 279.666,-1980.39 288.415,-1986.36 290.231,-1979.6"/>
</g>
<!-- \\System\\Core\\Database\\QueryParams -->
<g id="node30" class="node"><title>\\System\\Core\\Database\\QueryParams</title>
<polygon fill="none" stroke="black" points="487,-1772 397,-1772 397,-1736 487,-1736 487,-1772"/>
<text text-anchor="middle" x="442" y="-1751.1" font-family="Courier,monospace" font-size="11.00">QueryParams</text>
</g>
<!-- \\System\\Core\\ObjectList -->
<g id="node57" class="node"><title>\\System\\Core\\ObjectList</title>
<polygon fill="none" stroke="black" points="283,-1719 199,-1719 199,-1683 283,-1683 283,-1719"/>
<text text-anchor="middle" x="241" y="-1698.1" font-family="Courier,monospace" font-size="11.00">ObjectList</text>
</g>
<!-- \\System\\Core\\Database\\QueryParams&#45;&gt;\\System\\Core\\ObjectList -->
<g id="edge43" class="edge"><title>\\System\\Core\\Database\\QueryParams&#45;&gt;\\System\\Core\\ObjectList</title>
<path fill="none" stroke="black" d="M396.39,-1741.97C365.662,-1733.87 325.059,-1723.16 293.064,-1714.73"/>
<polygon fill="none" stroke="black" points="293.564,-1711.24 283.002,-1712.08 291.779,-1718.01 293.564,-1711.24"/>
</g>
<!-- \\System\\Core\\Database\\ConnectionData -->
<g id="node31" class="node"><title>\\System\\Core\\Database\\ConnectionData</title>
<polygon fill="none" stroke="black" points="497,-1880 387,-1880 387,-1844 497,-1844 497,-1880"/>
<text text-anchor="middle" x="442" y="-1859.1" font-family="Courier,monospace" font-size="11.00">ConnectionData</text>
</g>
<!-- \\System\\Core\\Database\\Database -->
<g id="node33" class="node"><title>\\System\\Core\\Database\\Database</title>
<polygon fill="none" stroke="black" points="477,-1826 407,-1826 407,-1790 477,-1790 477,-1826"/>
<text text-anchor="middle" x="442" y="-1805.1" font-family="Courier,monospace" font-size="11.00">Database</text>
</g>
<!-- \\System\\Core\\Database\\TableField -->
<g id="node34" class="node"><title>\\System\\Core\\Database\\TableField</title>
<polygon fill="none" stroke="black" points="484,-1988 400,-1988 400,-1952 484,-1952 484,-1988"/>
<text text-anchor="middle" x="442" y="-1967.1" font-family="Courier,monospace" font-size="11.00">TableField</text>
</g>
<!-- \\System\\Core\\Database\\TableField&#45;&gt;\\System\\Core\\Database\\DataField -->
<g id="edge55" class="edge"><title>\\System\\Core\\Database\\TableField&#45;&gt;\\System\\Core\\Database\\DataField</title>
<path fill="none" stroke="black" d="M399.864,-1970C367.732,-1970 323.419,-1970 289.757,-1970"/>
<polygon fill="none" stroke="black" points="289.677,-1966.5 279.677,-1970 289.677,-1973.5 289.677,-1966.5"/>
</g>
<!-- \\System\\Core\\Session -->
<g id="node36" class="node"><title>\\System\\Core\\Session</title>
<polygon fill="none" stroke="black" points="474,-1610 410,-1610 410,-1574 474,-1574 474,-1610"/>
<text text-anchor="middle" x="442" y="-1589.1" font-family="Courier,monospace" font-size="11.00">Session</text>
</g>
<!-- \\System\\Core\\ValidationRule -->
<g id="node37" class="node"><title>\\System\\Core\\ValidationRule</title>
<polygon fill="none" stroke="black" points="497,-1556 387,-1556 387,-1520 497,-1520 497,-1556"/>
<text text-anchor="middle" x="442" y="-1535.1" font-family="Courier,monospace" font-size="11.00">ValidationRule</text>
</g>
<!-- \\System\\Core\\DataContainer -->
<g id="node38" class="node"><title>\\System\\Core\\DataContainer</title>
<polygon fill="none" stroke="black" points="293,-962 189,-962 189,-926 293,-926 293,-962"/>
<text text-anchor="middle" x="241" y="-941.1" font-family="Courier,monospace" font-size="11.00">DataContainer</text>
</g>
<!-- \\System\\Core\\Log -->
<g id="node40" class="node"><title>\\System\\Core\\Log</title>
<polygon fill="none" stroke="black" points="469,-1448 415,-1448 415,-1412 469,-1412 469,-1448"/>
<text text-anchor="middle" x="442" y="-1427.1" font-family="Courier,monospace" font-size="11.00">Log</text>
</g>
<!-- \\System\\Core\\Action -->
<g id="node41" class="node"><title>\\System\\Core\\Action</title>
<polygon fill="none" stroke="black" points="470,-1394 414,-1394 414,-1358 470,-1358 470,-1394"/>
<text text-anchor="middle" x="442" y="-1373.1" font-family="Courier,monospace" font-size="11.00">Action</text>
</g>
<!-- \\System\\Core\\Template -->
<g id="node42" class="node"><title>\\System\\Core\\Template</title>
<polygon fill="none" stroke="black" points="477,-1340 407,-1340 407,-1304 477,-1304 477,-1340"/>
<text text-anchor="middle" x="442" y="-1319.1" font-family="Courier,monospace" font-size="11.00">Template</text>
</g>
<!-- \\System\\Core\\Router -->
<g id="node43" class="node"><title>\\System\\Core\\Router</title>
<polygon fill="none" stroke="black" points="470,-1286 414,-1286 414,-1250 470,-1250 470,-1286"/>
<text text-anchor="middle" x="442" y="-1265.1" font-family="Courier,monospace" font-size="11.00">Router</text>
</g>
<!-- \\System\\Core\\ConfigLoader -->
<g id="node44" class="node"><title>\\System\\Core\\ConfigLoader</title>
<polygon fill="none" stroke="black" points="491,-1232 393,-1232 393,-1196 491,-1196 491,-1232"/>
<text text-anchor="middle" x="442" y="-1211.1" font-family="Courier,monospace" font-size="11.00">ConfigLoader</text>
</g>
<!-- \\System\\Core\\Environment -->
<g id="node45" class="node"><title>\\System\\Core\\Environment</title>
<polygon fill="none" stroke="black" points="487,-1178 397,-1178 397,-1142 487,-1142 487,-1178"/>
<text text-anchor="middle" x="442" y="-1157.1" font-family="Courier,monospace" font-size="11.00">Environment</text>
</g>
<!-- \\System\\Core\\Registry -->
<g id="node46" class="node"><title>\\System\\Core\\Registry</title>
<polygon fill="none" stroke="black" points="477,-1124 407,-1124 407,-1088 477,-1088 477,-1124"/>
<text text-anchor="middle" x="442" y="-1103.1" font-family="Courier,monospace" font-size="11.00">Registry</text>
</g>
<!-- \\System\\Core\\Registry&#45;&gt;\\System\\Core\\DataContainer -->
<g id="edge25" class="edge"><title>\\System\\Core\\Registry&#45;&gt;\\System\\Core\\DataContainer</title>
<path fill="none" stroke="black" d="M406.44,-1094.45C396.19,-1090.34 385.278,-1085.17 376,-1079 329.581,-1048.13 285.885,-999.553 261.37,-969.859"/>
<polygon fill="none" stroke="black" points="264.009,-967.556 254.978,-962.015 258.582,-971.978 264.009,-967.556"/>
</g>
<!-- \\System\\Core\\Request -->
<g id="node49" class="node"><title>\\System\\Core\\Request</title>
<polygon fill="none" stroke="black" points="474,-962 410,-962 410,-926 474,-926 474,-962"/>
<text text-anchor="middle" x="442" y="-941.1" font-family="Courier,monospace" font-size="11.00">Request</text>
</g>
<!-- \\System\\Core\\Request&#45;&gt;\\System\\Core\\DataContainer -->
<g id="edge39" class="edge"><title>\\System\\Core\\Request&#45;&gt;\\System\\Core\\DataContainer</title>
<path fill="none" stroke="black" d="M409.706,-944C381.122,-944 338.601,-944 303.4,-944"/>
<polygon fill="none" stroke="black" points="303.21,-940.5 293.21,-944 303.21,-947.5 303.21,-940.5"/>
</g>
<!-- \\System\\Core\\Renderer -->
<g id="node50" class="node"><title>\\System\\Core\\Renderer</title>
<polygon fill="none" stroke="black" points="477,-908 407,-908 407,-872 477,-872 477,-908"/>
<text text-anchor="middle" x="442" y="-887.1" font-family="Courier,monospace" font-size="11.00">Renderer</text>
</g>
<!-- \\System\\Core\\Config -->
<g id="node52" class="node"><title>\\System\\Core\\Config</title>
<polygon fill="none" stroke="black" points="470,-800 414,-800 414,-764 470,-764 470,-800"/>
<text text-anchor="middle" x="442" y="-779.1" font-family="Courier,monospace" font-size="11.00">Config</text>
</g>
<!-- \\System\\Core\\Config&#45;&gt;\\System\\Core\\DataContainer -->
<g id="edge45" class="edge"><title>\\System\\Core\\Config&#45;&gt;\\System\\Core\\DataContainer</title>
<path fill="none" stroke="black" d="M413.276,-789.467C400.854,-793.72 386.737,-800.032 376,-809 330.297,-847.177 350.687,-885.032 304,-922 303.265,-922.582 302.513,-923.149 301.747,-923.702"/>
<polygon fill="none" stroke="black" points="299.711,-920.846 293.054,-929.088 303.398,-926.796 299.711,-920.846"/>
</g>
<!-- \\System\\Core\\ValidationRules -->
<g id="node54" class="node"><title>\\System\\Core\\ValidationRules</title>
<polygon fill="none" stroke="black" points="501,-1718 383,-1718 383,-1682 501,-1682 501,-1718"/>
<text text-anchor="middle" x="442" y="-1697.1" font-family="Courier,monospace" font-size="11.00">ValidationRules</text>
</g>
<!-- \\System\\Core\\ValidationRules&#45;&gt;\\System\\Core\\ObjectList -->
<g id="edge51" class="edge"><title>\\System\\Core\\ValidationRules&#45;&gt;\\System\\Core\\ObjectList</title>
<path fill="none" stroke="black" d="M382.781,-1700.29C354.44,-1700.44 320.799,-1700.6 293.399,-1700.74"/>
<polygon fill="none" stroke="black" points="293.21,-1697.24 283.228,-1700.79 293.245,-1704.24 293.21,-1697.24"/>
</g>
<!-- \\System\\Core\\OutputType -->
<g id="node55" class="node"><title>\\System\\Core\\OutputType</title>
<polygon fill="none" stroke="black" points="484,-564 400,-564 400,-528 484,-528 484,-564"/>
<text text-anchor="middle" x="442" y="-543.1" font-family="Courier,monospace" font-size="11.00">OutputType</text>
</g>
<!-- \\System\\Core\\Response -->
<g id="node56" class="node"><title>\\System\\Core\\Response</title>
<polygon fill="none" stroke="black" points="477,-510 407,-510 407,-474 477,-474 477,-510"/>
<text text-anchor="middle" x="442" y="-489.1" font-family="Courier,monospace" font-size="11.00">Response</text>
</g>
<!-- \\Iterator -->
<g id="node88" class="node"><title>\\Iterator</title>
<ellipse fill="none" stroke="black" cx="53" cy="-1701" rx="51.8276" ry="18.3848"/>
<text text-anchor="middle" x="53" y="-1697.4" font-family="Times Roman,serif" font-size="14.00" fill="gray">\Iterator</text>
</g>
<!-- \\System\\Core\\ObjectList&#45;&gt;\\Iterator -->
<g id="edge53" class="edge"><title>\\System\\Core\\ObjectList&#45;&gt;\\Iterator</title>
<path fill="none" stroke="black" stroke-dasharray="1,5" d="M198.809,-1701C174.426,-1701 143.28,-1701 116.039,-1701"/>
<polygon fill="none" stroke="black" points="115.812,-1697.5 105.812,-1701 115.812,-1704.5 115.812,-1697.5"/>
</g>
<!-- \\System\\Core\\AssetManager -->
<g id="node59" class="node"><title>\\System\\Core\\AssetManager</title>
<polygon fill="none" stroke="black" points="491,-402 393,-402 393,-366 491,-366 491,-402"/>
<text text-anchor="middle" x="442" y="-381.1" font-family="Courier,monospace" font-size="11.00">AssetManager</text>
</g>
<!-- \\System\\Helper\\Image -->
<g id="node61" class="node"><title>\\System\\Helper\\Image</title>
<polygon fill="none" stroke="black" points="469,-320 415,-320 415,-284 469,-284 469,-320"/>
<text text-anchor="middle" x="442" y="-299.1" font-family="Courier,monospace" font-size="11.00">Image</text>
</g>
<!-- \\System\\Helper\\Curl -->
<g id="node62" class="node"><title>\\System\\Helper\\Curl</title>
<polygon fill="none" stroke="black" points="469,-266 415,-266 415,-230 469,-230 469,-266"/>
<text text-anchor="middle" x="442" y="-245.1" font-family="Courier,monospace" font-size="11.00">Curl</text>
</g>
<!-- \\System\\Helper\\File -->
<g id="node63" class="node"><title>\\System\\Helper\\File</title>
<polygon fill="none" stroke="black" points="469,-212 415,-212 415,-176 469,-176 469,-212"/>
<text text-anchor="middle" x="442" y="-191.1" font-family="Courier,monospace" font-size="11.00">File</text>
</g>
<!-- \\System\\Helper\\Validator -->
<g id="node64" class="node"><title>\\System\\Helper\\Validator</title>
<polygon fill="none" stroke="black" points="480,-158 404,-158 404,-122 480,-122 480,-158"/>
<text text-anchor="middle" x="442" y="-137.1" font-family="Courier,monospace" font-size="11.00">Validator</text>
</g>
<!-- \\System\\Helper\\DateTime -->
<g id="node65" class="node"><title>\\System\\Helper\\DateTime</title>
<polygon fill="none" stroke="black" points="477,-104 407,-104 407,-68 477,-68 477,-104"/>
<text text-anchor="middle" x="442" y="-83.1" font-family="Courier,monospace" font-size="11.00">DateTime</text>
</g>
<!-- \\SplClassLoader -->
<g id="node66" class="node"><title>\\SplClassLoader</title>
<polygon fill="none" stroke="black" points="691,-426 581,-426 581,-390 691,-390 691,-426"/>
<text text-anchor="middle" x="636" y="-405.1" font-family="Courier,monospace" font-size="11.00">SplClassLoader</text>
</g>
</g>
</svg>
