<?xml version="1.0" encoding="UTF-8" standalone="no"?>
<!DOCTYPE svg PUBLIC "-//W3C//DTD SVG 1.1//EN"
 "http://www.w3.org/Graphics/SVG/1.1/DTD/svg11.dtd">
<!-- Generated by graphviz version 2.26.3 (20100126.1600)
 -->
<!-- Title: G Pages: 1 -->
<svg width="740pt" height="2340pt"
 viewBox="0.00 0.00 740.00 2340.00" xmlns="http://www.w3.org/2000/svg" xmlns:xlink="http://www.w3.org/1999/xlink">
<g id="graph1" class="graph" transform="scale(1 1) rotate(0) translate(4 2336)">
<title>G</title>
<polygon fill="white" stroke="white" points="-4,5 -4,-2336 737,-2336 737,5 -4,5"/>
<g id="graph2" class="cluster"><title>cluster_Global</title>
<polyline fill="none" stroke="gray" points="177,-44 712,-44 "/>
<path fill="none" stroke="gray" d="M712,-44C718,-44 724,-50 724,-56"/>
<polyline fill="none" stroke="gray" points="724,-56 724,-2312 "/>
<path fill="none" stroke="gray" d="M724,-2312C724,-2318 718,-2324 712,-2324"/>
<polyline fill="none" stroke="gray" points="712,-2324 177,-2324 "/>
<path fill="none" stroke="gray" d="M177,-2324C171,-2324 165,-2318 165,-2312"/>
<polyline fill="none" stroke="gray" points="165,-2312 165,-56 "/>
<path fill="none" stroke="gray" d="M165,-56C165,-50 171,-44 177,-44"/>
<text text-anchor="middle" x="444.5" y="-2310.1" font-family="Times Roman,serif" font-size="11.00" fill="gray">\</text>
</g>
<g id="graph3" class="cluster"><title>cluster_\Application</title>
<polyline fill="none" stroke="gray" points="568,-648 704,-648 "/>
<path fill="none" stroke="gray" d="M704,-648C710,-648 716,-654 716,-660"/>
<polyline fill="none" stroke="gray" points="716,-660 716,-1568 "/>
<path fill="none" stroke="gray" d="M716,-1568C716,-1574 710,-1580 704,-1580"/>
<polyline fill="none" stroke="gray" points="704,-1580 568,-1580 "/>
<path fill="none" stroke="gray" d="M568,-1580C562,-1580 556,-1574 556,-1568"/>
<polyline fill="none" stroke="gray" points="556,-1568 556,-660 "/>
<path fill="none" stroke="gray" d="M556,-660C556,-654 562,-648 568,-648"/>
<text text-anchor="middle" x="636" y="-1566.1" font-family="Times Roman,serif" font-size="11.00" fill="gray">Application</text>
</g>
<g id="graph4" class="cluster"><title>cluster_\Application\Database</title>
<polyline fill="none" stroke="gray" points="601,-1422 671,-1422 "/>
<path fill="none" stroke="gray" d="M671,-1422C677,-1422 683,-1428 683,-1434"/>
<polyline fill="none" stroke="gray" points="683,-1434 683,-1538 "/>
<path fill="none" stroke="gray" d="M683,-1538C683,-1544 677,-1550 671,-1550"/>
<polyline fill="none" stroke="gray" points="671,-1550 601,-1550 "/>
<path fill="none" stroke="gray" d="M601,-1550C595,-1550 589,-1544 589,-1538"/>
<polyline fill="none" stroke="gray" points="589,-1538 589,-1434 "/>
<path fill="none" stroke="gray" d="M589,-1434C589,-1428 595,-1422 601,-1422"/>
<text text-anchor="middle" x="636" y="-1536.1" font-family="Times Roman,serif" font-size="11.00" fill="gray">Database</text>
</g>
<g id="graph5" class="cluster"><title>cluster_\Application\Domain</title>
<polyline fill="none" stroke="gray" points="576,-976 696,-976 "/>
<path fill="none" stroke="gray" d="M696,-976C702,-976 708,-982 708,-988"/>
<polyline fill="none" stroke="gray" points="708,-988 708,-1402 "/>
<path fill="none" stroke="gray" d="M708,-1402C708,-1408 702,-1414 696,-1414"/>
<polyline fill="none" stroke="gray" points="696,-1414 576,-1414 "/>
<path fill="none" stroke="gray" d="M576,-1414C570,-1414 564,-1408 564,-1402"/>
<polyline fill="none" stroke="gray" points="564,-1402 564,-988 "/>
<path fill="none" stroke="gray" d="M564,-988C564,-982 570,-976 576,-976"/>
<text text-anchor="middle" x="636" y="-1400.1" font-family="Times Roman,serif" font-size="11.00" fill="gray">Domain</text>
</g>
<g id="graph6" class="cluster"><title>cluster_\Application\Domain\Entity</title>
<polyline fill="none" stroke="gray" points="588,-1202 684,-1202 "/>
<path fill="none" stroke="gray" d="M684,-1202C690,-1202 696,-1208 696,-1214"/>
<polyline fill="none" stroke="gray" points="696,-1214 696,-1372 "/>
<path fill="none" stroke="gray" d="M696,-1372C696,-1378 690,-1384 684,-1384"/>
<polyline fill="none" stroke="gray" points="684,-1384 588,-1384 "/>
<path fill="none" stroke="gray" d="M588,-1384C582,-1384 576,-1378 576,-1372"/>
<polyline fill="none" stroke="gray" points="576,-1372 576,-1214 "/>
<path fill="none" stroke="gray" d="M576,-1214C576,-1208 582,-1202 588,-1202"/>
<text text-anchor="middle" x="636" y="-1370.1" font-family="Times Roman,serif" font-size="11.00" fill="gray">Entity</text>
</g>
<g id="graph7" class="cluster"><title>cluster_\Application\Domain\Service</title>
<polyline fill="none" stroke="gray" points="594,-1120 678,-1120 "/>
<path fill="none" stroke="gray" d="M678,-1120C684,-1120 690,-1126 690,-1132"/>
<polyline fill="none" stroke="gray" points="690,-1132 690,-1182 "/>
<path fill="none" stroke="gray" d="M690,-1182C690,-1188 684,-1194 678,-1194"/>
<polyline fill="none" stroke="gray" points="678,-1194 594,-1194 "/>
<path fill="none" stroke="gray" d="M594,-1194C588,-1194 582,-1188 582,-1182"/>
<polyline fill="none" stroke="gray" points="582,-1182 582,-1132 "/>
<path fill="none" stroke="gray" d="M582,-1132C582,-1126 588,-1120 594,-1120"/>
<text text-anchor="middle" x="636" y="-1180.1" font-family="Times Roman,serif" font-size="11.00" fill="gray">Service</text>
</g>
<g id="graph8" class="cluster"><title>cluster_\Application\Domain\Repository</title>
<polyline fill="none" stroke="gray" points="584,-984 688,-984 "/>
<path fill="none" stroke="gray" d="M688,-984C694,-984 700,-990 700,-996"/>
<polyline fill="none" stroke="gray" points="700,-996 700,-1100 "/>
<path fill="none" stroke="gray" d="M700,-1100C700,-1106 694,-1112 688,-1112"/>
<polyline fill="none" stroke="gray" points="688,-1112 584,-1112 "/>
<path fill="none" stroke="gray" d="M584,-1112C578,-1112 572,-1106 572,-1100"/>
<polyline fill="none" stroke="gray" points="572,-1100 572,-996 "/>
<path fill="none" stroke="gray" d="M572,-996C572,-990 578,-984 584,-984"/>
<text text-anchor="middle" x="636" y="-1098.1" font-family="Times Roman,serif" font-size="11.00" fill="gray">Repository</text>
</g>
<g id="graph9" class="cluster"><title>cluster_\Application\Controller</title>
<polyline fill="none" stroke="gray" points="600,-702 672,-702 "/>
<path fill="none" stroke="gray" d="M672,-702C678,-702 684,-708 684,-714"/>
<polyline fill="none" stroke="gray" points="684,-714 684,-956 "/>
<path fill="none" stroke="gray" d="M684,-956C684,-962 678,-968 672,-968"/>
<polyline fill="none" stroke="gray" points="672,-968 600,-968 "/>
<path fill="none" stroke="gray" d="M600,-968C594,-968 588,-962 588,-956"/>
<polyline fill="none" stroke="gray" points="588,-956 588,-714 "/>
<path fill="none" stroke="gray" d="M588,-714C588,-708 594,-702 600,-702"/>
<text text-anchor="middle" x="636" y="-954.1" font-family="Times Roman,serif" font-size="11.00" fill="gray">Controller</text>
</g>
<g id="graph10" class="cluster"><title>cluster_\Application\Controller\Admin</title>
<polyline fill="none" stroke="gray" points="608,-810 664,-810 "/>
<path fill="none" stroke="gray" d="M664,-810C670,-810 676,-816 676,-822"/>
<polyline fill="none" stroke="gray" points="676,-822 676,-926 "/>
<path fill="none" stroke="gray" d="M676,-926C676,-932 670,-938 664,-938"/>
<polyline fill="none" stroke="gray" points="664,-938 608,-938 "/>
<path fill="none" stroke="gray" d="M608,-938C602,-938 596,-932 596,-926"/>
<polyline fill="none" stroke="gray" points="596,-926 596,-822 "/>
<path fill="none" stroke="gray" d="M596,-822C596,-816 602,-810 608,-810"/>
<text text-anchor="middle" x="636" y="-924.1" font-family="Times Roman,serif" font-size="11.00" fill="gray">Admin</text>
</g>
<g id="graph11" class="cluster"><title>cluster_\System</title>
<polyline fill="none" stroke="gray" points="185,-52 512,-52 "/>
<path fill="none" stroke="gray" d="M512,-52C518,-52 524,-58 524,-64"/>
<polyline fill="none" stroke="gray" points="524,-64 524,-2282 "/>
<path fill="none" stroke="gray" d="M524,-2282C524,-2288 518,-2294 512,-2294"/>
<polyline fill="none" stroke="gray" points="512,-2294 185,-2294 "/>
<path fill="none" stroke="gray" d="M185,-2294C179,-2294 173,-2288 173,-2282"/>
<polyline fill="none" stroke="gray" points="173,-2282 173,-64 "/>
<path fill="none" stroke="gray" d="M173,-64C173,-58 179,-52 185,-52"/>
<text text-anchor="middle" x="348.5" y="-2280.1" font-family="Times Roman,serif" font-size="11.00" fill="gray">System</text>
</g>
<g id="graph12" class="cluster"><title>cluster_\System\Core</title>
<polyline fill="none" stroke="gray" points="193,-358 504,-358 "/>
<path fill="none" stroke="gray" d="M504,-358C510,-358 516,-364 516,-370"/>
<polyline fill="none" stroke="gray" points="516,-370 516,-2252 "/>
<path fill="none" stroke="gray" d="M516,-2252C516,-2258 510,-2264 504,-2264"/>
<polyline fill="none" stroke="gray" points="504,-2264 193,-2264 "/>
<path fill="none" stroke="gray" d="M193,-2264C187,-2264 181,-2258 181,-2252"/>
<polyline fill="none" stroke="gray" points="181,-2252 181,-370 "/>
<path fill="none" stroke="gray" d="M181,-370C181,-364 187,-358 193,-358"/>
<text text-anchor="middle" x="348.5" y="-2250.1" font-family="Times Roman,serif" font-size="11.00" fill="gray">Core</text>
</g>
<g id="graph13" class="cluster"><title>cluster_\System\Core\Exception</title>
<polyline fill="none" stroke="gray" points="404,-574 480,-574 "/>
<path fill="none" stroke="gray" d="M480,-574C486,-574 492,-580 492,-586"/>
<polyline fill="none" stroke="gray" points="492,-586 492,-690 "/>
<path fill="none" stroke="gray" d="M492,-690C492,-696 486,-702 480,-702"/>
<polyline fill="none" stroke="gray" points="480,-702 404,-702 "/>
<path fill="none" stroke="gray" d="M404,-702C398,-702 392,-696 392,-690"/>
<polyline fill="none" stroke="gray" points="392,-690 392,-586 "/>
<path fill="none" stroke="gray" d="M392,-586C392,-580 398,-574 404,-574"/>
<text text-anchor="middle" x="442" y="-688.1" font-family="Times Roman,serif" font-size="11.00" fill="gray">Exception</text>
</g>
<g id="graph14" class="cluster"><title>cluster_\System\Core\Database</title>
<polyline fill="none" stroke="gray" points="206,-1782 494,-1782 "/>
<path fill="none" stroke="gray" d="M494,-1782C500,-1782 506,-1788 506,-1794"/>
<polyline fill="none" stroke="gray" points="506,-1794 506,-2222 "/>
<path fill="none" stroke="gray" d="M506,-2222C506,-2228 500,-2234 494,-2234"/>
<polyline fill="none" stroke="gray" points="494,-2234 206,-2234 "/>
<path fill="none" stroke="gray" d="M206,-2234C200,-2234 194,-2228 194,-2222"/>
<polyline fill="none" stroke="gray" points="194,-2222 194,-1794 "/>
<path fill="none" stroke="gray" d="M194,-1794C194,-1788 200,-1782 206,-1782"/>
<text text-anchor="middle" x="350" y="-2220.1" font-family="Times Roman,serif" font-size="11.00" fill="gray">Database</text>
</g>
<g id="graph15" class="cluster"><title>cluster_\System\Helper</title>
<polyline fill="none" stroke="gray" points="407,-60 477,-60 "/>
<path fill="none" stroke="gray" d="M477,-60C483,-60 489,-66 489,-72"/>
<polyline fill="none" stroke="gray" points="489,-72 489,-338 "/>
<path fill="none" stroke="gray" d="M489,-338C489,-344 483,-350 477,-350"/>
<polyline fill="none" stroke="gray" points="477,-350 407,-350 "/>
<path fill="none" stroke="gray" d="M407,-350C401,-350 395,-344 395,-338"/>
<polyline fill="none" stroke="gray" points="395,-338 395,-72 "/>
<path fill="none" stroke="gray" d="M395,-72C395,-66 401,-60 407,-60"/>
<text text-anchor="middle" x="442" y="-336.1" font-family="Times Roman,serif" font-size="11.00" fill="gray">Helper</text>
</g>
<!-- \\Application\\Database\\ItemTable -->
<g id="node4" class="node"><title>\\Application\\Database\\ItemTable</title>
<polygon fill="none" stroke="black" points="674,-1520 598,-1520 598,-1484 674,-1484 674,-1520"/>
<text text-anchor="middle" x="636" y="-1499.1" font-family="Courier,monospace" font-size="11.00">ItemTable</text>
</g>
<!-- \\System\\Core\\Database\\Table -->
<g id="node29" class="node"><title>\\System\\Core\\Database\\Table</title>
<polygon fill="none" stroke="black" points="469,-2204 415,-2204 415,-2168 469,-2168 469,-2204"/>
<text text-anchor="middle" x="442" y="-2183.1" font-family="Courier,monospace" font-size="11.00">Table</text>
</g>
<!-- \\Application\\Database\\ItemTable&#45;&gt;\\System\\Core\\Database\\Table -->
<g id="edge16" class="edge"><title>\\Application\\Database\\ItemTable&#45;&gt;\\System\\Core\\Database\\Table</title>
<path fill="none" stroke="black" d="M635.362,-1520.27C631.665,-1615.99 610.059,-2059.03 524,-2159 512.85,-2171.95 495.365,-2178.72 479.4,-2182.25"/>
<polygon fill="none" stroke="black" points="478.409,-2178.87 469.211,-2184.13 479.68,-2185.76 478.409,-2178.87"/>
</g>
<!-- \\Application\\Database\\TypeTable -->
<g id="node5" class="node"><title>\\Application\\Database\\TypeTable</title>
<polygon fill="none" stroke="black" points="674,-1466 598,-1466 598,-1430 674,-1430 674,-1466"/>
<text text-anchor="middle" x="636" y="-1445.1" font-family="Courier,monospace" font-size="11.00">TypeTable</text>
</g>
<!-- \\Application\\Database\\TypeTable&#45;&gt;\\System\\Core\\Database\\Table -->
<g id="edge42" class="edge"><title>\\Application\\Database\\TypeTable&#45;&gt;\\System\\Core\\Database\\Table</title>
<path fill="none" stroke="black" d="M597.09,-1451.77C581.843,-1455.33 565.707,-1462.12 556,-1475 464.393,-1596.5 616.056,-2037.84 524,-2159 513.413,-2172.93 495.424,-2179.78 478.988,-2183.09"/>
<polygon fill="none" stroke="black" points="478.332,-2179.65 469.036,-2184.74 479.472,-2186.56 478.332,-2179.65"/>
</g>
<!-- \\Application\\Domain\\Entity\\ItemValidator -->
<g id="node8" class="node"><title>\\Application\\Domain\\Entity\\ItemValidator</title>
<polygon fill="none" stroke="black" points="688,-1354 584,-1354 584,-1318 688,-1318 688,-1354"/>
<text text-anchor="middle" x="636" y="-1333.1" font-family="Courier,monospace" font-size="11.00">ItemValidator</text>
</g>
<!-- \\System\\Core\\EntityValidator -->
<g id="node62" class="node"><title>\\System\\Core\\EntityValidator</title>
<polygon fill="none" stroke="black" points="501,-1718 383,-1718 383,-1682 501,-1682 501,-1718"/>
<text text-anchor="middle" x="442" y="-1697.1" font-family="Courier,monospace" font-size="11.00">EntityValidator</text>
</g>
<!-- \\Application\\Domain\\Entity\\ItemValidator&#45;&gt;\\System\\Core\\EntityValidator -->
<g id="edge20" class="edge"><title>\\Application\\Domain\\Entity\\ItemValidator&#45;&gt;\\System\\Core\\EntityValidator</title>
<path fill="none" stroke="black" d="M610.981,-1354.23C592.519,-1369.16 568.517,-1392.02 556,-1418 506.426,-1520.9 596.599,-1584.82 524,-1673 520.155,-1677.67 515.485,-1681.54 510.344,-1684.74"/>
<polygon fill="none" stroke="black" points="508.508,-1681.75 501.313,-1689.53 511.787,-1687.94 508.508,-1681.75"/>
</g>
<!-- \\Application\\Domain\\Entity\\Type -->
<g id="node9" class="node"><title>\\Application\\Domain\\Entity\\Type</title>
<polygon fill="none" stroke="black" points="663,-1300 609,-1300 609,-1264 663,-1264 663,-1300"/>
<text text-anchor="middle" x="636" y="-1279.1" font-family="Courier,monospace" font-size="11.00">Type</text>
</g>
<!-- \\System\\Core\\Entity -->
<g id="node38" class="node"><title>\\System\\Core\\Entity</title>
<polygon fill="none" stroke="black" points="470,-1556 414,-1556 414,-1520 470,-1520 470,-1556"/>
<text text-anchor="middle" x="442" y="-1535.1" font-family="Courier,monospace" font-size="11.00">Entity</text>
</g>
<!-- \\Application\\Domain\\Entity\\Type&#45;&gt;\\System\\Core\\Entity -->
<g id="edge32" class="edge"><title>\\Application\\Domain\\Entity\\Type&#45;&gt;\\System\\Core\\Entity</title>
<path fill="none" stroke="black" d="M608.996,-1284.07C591.278,-1286.91 569.05,-1293.54 556,-1309 497.359,-1378.45 582.898,-1441.77 524,-1511 513.245,-1523.64 496.45,-1530.4 480.854,-1534"/>
<polygon fill="none" stroke="black" points="480.004,-1530.6 470.853,-1535.94 481.336,-1537.47 480.004,-1530.6"/>
</g>
<!-- \\Application\\Domain\\Entity\\Item -->
<g id="node10" class="node"><title>\\Application\\Domain\\Entity\\Item</title>
<polygon fill="none" stroke="black" points="663,-1246 609,-1246 609,-1210 663,-1210 663,-1246"/>
<text text-anchor="middle" x="636" y="-1225.1" font-family="Courier,monospace" font-size="11.00">Item</text>
</g>
<!-- \\Application\\Domain\\Entity\\Item&#45;&gt;\\System\\Core\\Entity -->
<g id="edge34" class="edge"><title>\\Application\\Domain\\Entity\\Item&#45;&gt;\\System\\Core\\Entity</title>
<path fill="none" stroke="black" d="M608.834,-1229.93C591.043,-1232.71 568.796,-1239.33 556,-1255 483.471,-1343.81 596.857,-1422.46 524,-1511 513.375,-1523.91 496.438,-1530.7 480.708,-1534.24"/>
<polygon fill="none" stroke="black" points="479.805,-1530.85 470.624,-1536.14 481.098,-1537.73 479.805,-1530.85"/>
</g>
<!-- \\Application\\Domain\\Service\\ItemService -->
<g id="node12" class="node"><title>\\Application\\Domain\\Service\\ItemService</title>
<polygon fill="none" stroke="black" points="681,-1164 591,-1164 591,-1128 681,-1128 681,-1164"/>
<text text-anchor="middle" x="636" y="-1143.1" font-family="Courier,monospace" font-size="11.00">ItemService</text>
</g>
<!-- \\System\\Core\\Service -->
<g id="node55" class="node"><title>\\System\\Core\\Service</title>
<polygon fill="none" stroke="black" points="474,-1124 410,-1124 410,-1088 474,-1088 474,-1124"/>
<text text-anchor="middle" x="442" y="-1103.1" font-family="Courier,monospace" font-size="11.00">Service</text>
</g>
<!-- \\Application\\Domain\\Service\\ItemService&#45;&gt;\\System\\Core\\Service -->
<g id="edge24" class="edge"><title>\\Application\\Domain\\Service\\ItemService&#45;&gt;\\System\\Core\\Service</title>
<path fill="none" stroke="black" d="M590.025,-1136.52C557.912,-1129.9 515.368,-1121.13 484.134,-1114.69"/>
<polygon fill="none" stroke="black" points="484.507,-1111.19 474.006,-1112.6 483.093,-1118.05 484.507,-1111.19"/>
</g>
<!-- \\Application\\Domain\\Repository\\TypeRepository -->
<g id="node14" class="node"><title>\\Application\\Domain\\Repository\\TypeRepository</title>
<polygon fill="none" stroke="black" points="691,-1082 581,-1082 581,-1046 691,-1046 691,-1082"/>
<text text-anchor="middle" x="636" y="-1061.1" font-family="Courier,monospace" font-size="11.00">TypeRepository</text>
</g>
<!-- \\System\\Core\\Repository -->
<g id="node42" class="node"><title>\\System\\Core\\Repository</title>
<polygon fill="none" stroke="black" points="484,-1016 400,-1016 400,-980 484,-980 484,-1016"/>
<text text-anchor="middle" x="442" y="-995.1" font-family="Courier,monospace" font-size="11.00">Repository</text>
</g>
<!-- \\Application\\Domain\\Repository\\TypeRepository&#45;&gt;\\System\\Core\\Repository -->
<g id="edge48" class="edge"><title>\\Application\\Domain\\Repository\\TypeRepository&#45;&gt;\\System\\Core\\Repository</title>
<path fill="none" stroke="black" d="M581.694,-1045.94C573.082,-1043 564.285,-1039.95 556,-1037 541.691,-1031.9 538.328,-1030.04 524,-1025 514.351,-1021.6 504.019,-1018.1 494.053,-1014.79"/>
<polygon fill="none" stroke="black" points="494.842,-1011.36 484.249,-1011.55 492.646,-1018.01 494.842,-1011.36"/>
</g>
<!-- \\Application\\Domain\\Repository\\ItemRepository -->
<g id="node15" class="node"><title>\\Application\\Domain\\Repository\\ItemRepository</title>
<polygon fill="none" stroke="black" points="691,-1028 581,-1028 581,-992 691,-992 691,-1028"/>
<text text-anchor="middle" x="636" y="-1007.1" font-family="Courier,monospace" font-size="11.00">ItemRepository</text>
</g>
<!-- \\Application\\Domain\\Repository\\ItemRepository&#45;&gt;\\System\\Core\\Repository -->
<g id="edge58" class="edge"><title>\\Application\\Domain\\Repository\\ItemRepository&#45;&gt;\\System\\Core\\Repository</title>
<path fill="none" stroke="black" d="M580.407,-1006.56C553.324,-1004.89 520.938,-1002.88 494.306,-1001.24"/>
<polygon fill="none" stroke="black" points="494.227,-997.724 484.03,-1000.6 493.795,-1004.71 494.227,-997.724"/>
</g>
<!-- \\Application\\Controller\\Admin\\Factory -->
<g id="node18" class="node"><title>\\Application\\Controller\\Admin\\Factory</title>
<polygon fill="none" stroke="black" points="668,-908 604,-908 604,-872 668,-872 668,-908"/>
<text text-anchor="middle" x="636" y="-887.1" font-family="Courier,monospace" font-size="11.00">Factory</text>
</g>
<!-- \\System\\Core\\ControllerFactory -->
<g id="node50" class="node"><title>\\System\\Core\\ControllerFactory</title>
<polygon fill="none" stroke="black" points="507,-854 377,-854 377,-818 507,-818 507,-854"/>
<text text-anchor="middle" x="442" y="-833.1" font-family="Courier,monospace" font-size="11.00">ControllerFactory</text>
</g>
<!-- \\Application\\Controller\\Admin\\Factory&#45;&gt;\\System\\Core\\ControllerFactory -->
<g id="edge60" class="edge"><title>\\Application\\Controller\\Admin\\Factory&#45;&gt;\\System\\Core\\ControllerFactory</title>
<path fill="none" stroke="black" d="M603.965,-881.083C580.173,-874.46 546.73,-865.152 516.407,-856.711"/>
<polygon fill="none" stroke="black" points="517.26,-853.316 506.688,-854.006 515.383,-860.059 517.26,-853.316"/>
</g>
<!-- \\Application\\Controller\\Admin\\Test -->
<g id="node19" class="node"><title>\\Application\\Controller\\Admin\\Test</title>
<polygon fill="none" stroke="black" points="663,-854 609,-854 609,-818 663,-818 663,-854"/>
<text text-anchor="middle" x="636" y="-833.1" font-family="Courier,monospace" font-size="11.00">Test</text>
</g>
<!-- \\System\\Core\\BaseController -->
<g id="node52" class="node"><title>\\System\\Core\\BaseController</title>
<polygon fill="none" stroke="black" points="497,-746 387,-746 387,-710 497,-710 497,-746"/>
<text text-anchor="middle" x="442" y="-725.1" font-family="Courier,monospace" font-size="11.00">BaseController</text>
</g>
<!-- \\Application\\Controller\\Admin\\Test&#45;&gt;\\System\\Core\\BaseController -->
<g id="edge62" class="edge"><title>\\Application\\Controller\\Admin\\Test&#45;&gt;\\System\\Core\\BaseController</title>
<path fill="none" stroke="black" d="M608.733,-833.895C592.01,-831.386 571.003,-825.913 556,-814 532.638,-795.45 546.893,-774.125 524,-755 519.018,-750.838 513.375,-747.312 507.436,-744.325"/>
<polygon fill="none" stroke="black" points="508.471,-740.953 497.914,-740.061 505.611,-747.342 508.471,-740.953"/>
</g>
<!-- \\Application\\Controller\\Factory -->
<g id="node20" class="node"><title>\\Application\\Controller\\Factory</title>
<polygon fill="none" stroke="black" points="668,-800 604,-800 604,-764 668,-764 668,-800"/>
<text text-anchor="middle" x="636" y="-779.1" font-family="Courier,monospace" font-size="11.00">Factory</text>
</g>
<!-- \\Application\\Controller\\Factory&#45;&gt;\\System\\Core\\ControllerFactory -->
<g id="edge22" class="edge"><title>\\Application\\Controller\\Factory&#45;&gt;\\System\\Core\\ControllerFactory</title>
<path fill="none" stroke="black" d="M603.965,-790.917C580.173,-797.54 546.73,-806.848 516.407,-815.289"/>
<polygon fill="none" stroke="black" points="515.383,-811.941 506.688,-817.994 517.26,-818.684 515.383,-811.941"/>
</g>
<!-- \\Application\\Controller\\Test -->
<g id="node21" class="node"><title>\\Application\\Controller\\Test</title>
<polygon fill="none" stroke="black" points="663,-746 609,-746 609,-710 663,-710 663,-746"/>
<text text-anchor="middle" x="636" y="-725.1" font-family="Courier,monospace" font-size="11.00">Test</text>
</g>
<!-- \\Application\\Controller\\Test&#45;&gt;\\System\\Core\\BaseController -->
<g id="edge50" class="edge"><title>\\Application\\Controller\\Test&#45;&gt;\\System\\Core\\BaseController</title>
<path fill="none" stroke="black" d="M608.616,-728C582.474,-728 542.074,-728 507.603,-728"/>
<polygon fill="none" stroke="black" points="507.588,-724.5 497.588,-728 507.588,-731.5 507.588,-724.5"/>
</g>
<!-- \\Application\\Application -->
<g id="node22" class="node"><title>\\Application\\Application</title>
<polygon fill="none" stroke="black" points="681,-692 591,-692 591,-656 681,-656 681,-692"/>
<text text-anchor="middle" x="636" y="-671.1" font-family="Courier,monospace" font-size="11.00">Application</text>
</g>
<!-- \\System\\Core\\BaseApplication -->
<g id="node57" class="node"><title>\\System\\Core\\BaseApplication</title>
<polygon fill="none" stroke="black" points="501,-456 383,-456 383,-420 501,-420 501,-456"/>
<text text-anchor="middle" x="442" y="-435.1" font-family="Courier,monospace" font-size="11.00">BaseApplication</text>
</g>
<!-- \\Application\\Application&#45;&gt;\\System\\Core\\BaseApplication -->
<g id="edge38" class="edge"><title>\\Application\\Application&#45;&gt;\\System\\Core\\BaseApplication</title>
<path fill="none" stroke="black" d="M590.106,-670.471C577.452,-667.304 564.799,-661.716 556,-652 499.397,-589.503 579.032,-528.884 524,-465 520.052,-460.417 515.311,-456.608 510.124,-453.443"/>
<polygon fill="none" stroke="black" points="511.522,-450.224 501.038,-448.701 508.284,-456.43 511.522,-450.224"/>
</g>
<!-- \\System\\Core\\Exception\\Validation -->
<g id="node26" class="node"><title>\\System\\Core\\Exception\\Validation</title>
<polygon fill="none" stroke="black" points="484,-672 400,-672 400,-636 484,-636 484,-672"/>
<text text-anchor="middle" x="442" y="-651.1" font-family="Courier,monospace" font-size="11.00">Validation</text>
</g>
<!-- \\Exception -->
<g id="node73" class="node"><title>\\Exception</title>
<ellipse fill="none" stroke="black" cx="241" cy="-18" rx="62.9325" ry="18.3848"/>
<text text-anchor="middle" x="241" y="-14.4" font-family="Times Roman,serif" font-size="14.00" fill="gray">\Exception</text>
</g>
<!-- \\System\\Core\\Exception\\Validation&#45;&gt;\\Exception -->
<g id="edge18" class="edge"><title>\\System\\Core\\Exception\\Validation&#45;&gt;\\Exception</title>
<path fill="none" stroke="black" d="M399.673,-643.701C390.781,-639.775 382.223,-634.384 376,-627 356.627,-604.014 269.281,-162.652 246.466,-46.0511"/>
<polygon fill="none" stroke="black" points="249.875,-45.246 244.522,-36.103 243.005,-46.5886 249.875,-45.246"/>
</g>
<!-- \\System\\Core\\Exception\\Database -->
<g id="node27" class="node"><title>\\System\\Core\\Exception\\Database</title>
<polygon fill="none" stroke="black" points="477,-618 407,-618 407,-582 477,-582 477,-618"/>
<text text-anchor="middle" x="442" y="-597.1" font-family="Courier,monospace" font-size="11.00">Database</text>
</g>
<!-- \\System\\Core\\Exception\\Database&#45;&gt;\\Exception -->
<g id="edge36" class="edge"><title>\\System\\Core\\Exception\\Database&#45;&gt;\\Exception</title>
<path fill="none" stroke="black" d="M406.416,-595.069C395.319,-591.878 383.924,-586.63 376,-578 338.848,-537.54 266.032,-154.063 246.131,-46.1383"/>
<polygon fill="none" stroke="black" points="249.521,-45.2216 244.272,-36.0189 242.637,-46.4868 249.521,-45.2216"/>
</g>
<!-- \\System\\Core\\Database\\QueryParam -->
<g id="node30" class="node"><title>\\System\\Core\\Database\\QueryParam</title>
<polygon fill="none" stroke="black" points="484,-2150 400,-2150 400,-2114 484,-2114 484,-2150"/>
<text text-anchor="middle" x="442" y="-2129.1" font-family="Courier,monospace" font-size="11.00">QueryParam</text>
</g>
<!-- \\System\\Core\\Database\\ForeignField -->
<g id="node31" class="node"><title>\\System\\Core\\Database\\ForeignField</title>
<polygon fill="none" stroke="black" points="491,-2096 393,-2096 393,-2060 491,-2060 491,-2096"/>
<text text-anchor="middle" x="442" y="-2075.1" font-family="Courier,monospace" font-size="11.00">ForeignField</text>
</g>
<!-- \\System\\Core\\Database\\DataField -->
<g id="node35" class="node"><title>\\System\\Core\\Database\\DataField</title>
<polygon fill="none" stroke="black" points="279,-2042 203,-2042 203,-2006 279,-2006 279,-2042"/>
<text text-anchor="middle" x="241" y="-2021.1" font-family="Courier,monospace" font-size="11.00">DataField</text>
</g>
<!-- \\System\\Core\\Database\\ForeignField&#45;&gt;\\System\\Core\\Database\\DataField -->
<g id="edge28" class="edge"><title>\\System\\Core\\Database\\ForeignField&#45;&gt;\\System\\Core\\Database\\DataField</title>
<path fill="none" stroke="black" d="M392.83,-2064.79C361.368,-2056.34 320.732,-2045.42 289.418,-2037.01"/>
<polygon fill="none" stroke="black" points="290.168,-2033.59 279.602,-2034.37 288.352,-2040.35 290.168,-2033.59"/>
</g>
<!-- \\System\\Core\\Database\\CustomField -->
<g id="node32" class="node"><title>\\System\\Core\\Database\\CustomField</title>
<polygon fill="none" stroke="black" points="487,-2042 397,-2042 397,-2006 487,-2006 487,-2042"/>
<text text-anchor="middle" x="442" y="-2021.1" font-family="Courier,monospace" font-size="11.00">CustomField</text>
</g>
<!-- \\System\\Core\\Database\\CustomField&#45;&gt;\\System\\Core\\Database\\DataField -->
<g id="edge30" class="edge"><title>\\System\\Core\\Database\\CustomField&#45;&gt;\\System\\Core\\Database\\DataField</title>
<path fill="none" stroke="black" d="M396.39,-2024C364.617,-2024 322.286,-2024 289.83,-2024"/>
<polygon fill="none" stroke="black" points="289.666,-2020.5 279.666,-2024 289.666,-2027.5 289.666,-2020.5"/>
</g>
<!-- \\System\\Core\\Database\\QueryParams -->
<g id="node33" class="node"><title>\\System\\Core\\Database\\QueryParams</title>
<polygon fill="none" stroke="black" points="487,-1826 397,-1826 397,-1790 487,-1790 487,-1826"/>
<text text-anchor="middle" x="442" y="-1805.1" font-family="Courier,monospace" font-size="11.00">QueryParams</text>
</g>
<!-- \\System\\Core\\ObjectList -->
<g id="node61" class="node"><title>\\System\\Core\\ObjectList</title>
<polygon fill="none" stroke="black" points="283,-1773 199,-1773 199,-1737 283,-1737 283,-1773"/>
<text text-anchor="middle" x="241" y="-1752.1" font-family="Courier,monospace" font-size="11.00">ObjectList</text>
</g>
<!-- \\System\\Core\\Database\\QueryParams&#45;&gt;\\System\\Core\\ObjectList -->
<g id="edge44" class="edge"><title>\\System\\Core\\Database\\QueryParams&#45;&gt;\\System\\Core\\ObjectList</title>
<path fill="none" stroke="black" d="M396.39,-1795.97C365.662,-1787.87 325.059,-1777.16 293.064,-1768.73"/>
<polygon fill="none" stroke="black" points="293.564,-1765.24 283.002,-1766.08 291.779,-1772.01 293.564,-1765.24"/>
</g>
<!-- \\System\\Core\\Database\\ConnectionData -->
<g id="node34" class="node"><title>\\System\\Core\\Database\\ConnectionData</title>
<polygon fill="none" stroke="black" points="497,-1934 387,-1934 387,-1898 497,-1898 497,-1934"/>
<text text-anchor="middle" x="442" y="-1913.1" font-family="Courier,monospace" font-size="11.00">ConnectionData</text>
</g>
<!-- \\System\\Core\\Database\\Database -->
<g id="node36" class="node"><title>\\System\\Core\\Database\\Database</title>
<polygon fill="none" stroke="black" points="477,-1880 407,-1880 407,-1844 477,-1844 477,-1880"/>
<text text-anchor="middle" x="442" y="-1859.1" font-family="Courier,monospace" font-size="11.00">Database</text>
</g>
<!-- \\System\\Core\\Database\\TableField -->
<g id="node37" class="node"><title>\\System\\Core\\Database\\TableField</title>
<polygon fill="none" stroke="black" points="484,-1988 400,-1988 400,-1952 484,-1952 484,-1988"/>
<text text-anchor="middle" x="442" y="-1967.1" font-family="Courier,monospace" font-size="11.00">TableField</text>
</g>
<!-- \\System\\Core\\Database\\TableField&#45;&gt;\\System\\Core\\Database\\DataField -->
<g id="edge56" class="edge"><title>\\System\\Core\\Database\\TableField&#45;&gt;\\System\\Core\\Database\\DataField</title>
<path fill="none" stroke="black" d="M399.864,-1981.32C367.732,-1989.95 323.419,-2001.86 289.757,-2010.9"/>
<polygon fill="none" stroke="black" points="288.426,-2007.63 279.677,-2013.61 290.242,-2014.39 288.426,-2007.63"/>
</g>
<!-- \\System\\Core\\Session -->
<g id="node39" class="node"><title>\\System\\Core\\Session</title>
<polygon fill="none" stroke="black" points="474,-1664 410,-1664 410,-1628 474,-1628 474,-1664"/>
<text text-anchor="middle" x="442" y="-1643.1" font-family="Courier,monospace" font-size="11.00">Session</text>
</g>
<!-- \\System\\Core\\ValidationRule -->
<g id="node40" class="node"><title>\\System\\Core\\ValidationRule</title>
<polygon fill="none" stroke="black" points="497,-1610 387,-1610 387,-1574 497,-1574 497,-1610"/>
<text text-anchor="middle" x="442" y="-1589.1" font-family="Courier,monospace" font-size="11.00">ValidationRule</text>
</g>
<!-- \\System\\Core\\DataContainer -->
<g id="node41" class="node"><title>\\System\\Core\\DataContainer</title>
<polygon fill="none" stroke="black" points="293,-962 189,-962 189,-926 293,-926 293,-962"/>
<text text-anchor="middle" x="241" y="-941.1" font-family="Courier,monospace" font-size="11.00">DataContainer</text>
</g>
<!-- \\System\\Core\\Log -->
<g id="node43" class="node"><title>\\System\\Core\\Log</title>
<polygon fill="none" stroke="black" points="469,-1502 415,-1502 415,-1466 469,-1466 469,-1502"/>
<text text-anchor="middle" x="442" y="-1481.1" font-family="Courier,monospace" font-size="11.00">Log</text>
</g>
<!-- \\System\\Core\\Action -->
<g id="node44" class="node"><title>\\System\\Core\\Action</title>
<polygon fill="none" stroke="black" points="470,-1448 414,-1448 414,-1412 470,-1412 470,-1448"/>
<text text-anchor="middle" x="442" y="-1427.1" font-family="Courier,monospace" font-size="11.00">Action</text>
</g>
<!-- \\System\\Core\\Template -->
<g id="node45" class="node"><title>\\System\\Core\\Template</title>
<polygon fill="none" stroke="black" points="477,-1394 407,-1394 407,-1358 477,-1358 477,-1394"/>
<text text-anchor="middle" x="442" y="-1373.1" font-family="Courier,monospace" font-size="11.00">Template</text>
</g>
<!-- \\System\\Core\\Router -->
<g id="node46" class="node"><title>\\System\\Core\\Router</title>
<polygon fill="none" stroke="black" points="470,-1340 414,-1340 414,-1304 470,-1304 470,-1340"/>
<text text-anchor="middle" x="442" y="-1319.1" font-family="Courier,monospace" font-size="11.00">Router</text>
</g>
<!-- \\System\\Core\\ConfigLoader -->
<g id="node47" class="node"><title>\\System\\Core\\ConfigLoader</title>
<polygon fill="none" stroke="black" points="491,-1286 393,-1286 393,-1250 491,-1250 491,-1286"/>
<text text-anchor="middle" x="442" y="-1265.1" font-family="Courier,monospace" font-size="11.00">ConfigLoader</text>
</g>
<!-- \\System\\Core\\Environment -->
<g id="node48" class="node"><title>\\System\\Core\\Environment</title>
<polygon fill="none" stroke="black" points="487,-1232 397,-1232 397,-1196 487,-1196 487,-1232"/>
<text text-anchor="middle" x="442" y="-1211.1" font-family="Courier,monospace" font-size="11.00">Environment</text>
</g>
<!-- \\System\\Core\\Registry -->
<g id="node49" class="node"><title>\\System\\Core\\Registry</title>
<polygon fill="none" stroke="black" points="477,-800 407,-800 407,-764 477,-764 477,-800"/>
<text text-anchor="middle" x="442" y="-779.1" font-family="Courier,monospace" font-size="11.00">Registry</text>
</g>
<!-- \\System\\Core\\Registry&#45;&gt;\\System\\Core\\DataContainer -->
<g id="edge26" class="edge"><title>\\System\\Core\\Registry&#45;&gt;\\System\\Core\\DataContainer</title>
<path fill="none" stroke="black" d="M406.207,-792.055C395.724,-796.158 384.741,-801.698 376,-809 330.297,-847.177 350.687,-885.032 304,-922 303.265,-922.582 302.513,-923.149 301.747,-923.702"/>
<polygon fill="none" stroke="black" points="299.711,-920.846 293.054,-929.088 303.398,-926.796 299.711,-920.846"/>
</g>
<!-- \\System\\Core\\AssetManager -->
<g id="node51" class="node"><title>\\System\\Core\\AssetManager</title>
<polygon fill="none" stroke="black" points="491,-1070 393,-1070 393,-1034 491,-1034 491,-1070"/>
<text text-anchor="middle" x="442" y="-1049.1" font-family="Courier,monospace" font-size="11.00">AssetManager</text>
</g>
<!-- \\System\\Core\\Request -->
<g id="node53" class="node"><title>\\System\\Core\\Request</title>
<polygon fill="none" stroke="black" points="474,-1178 410,-1178 410,-1142 474,-1142 474,-1178"/>
<text text-anchor="middle" x="442" y="-1157.1" font-family="Courier,monospace" font-size="11.00">Request</text>
</g>
<!-- \\System\\Core\\Request&#45;&gt;\\System\\Core\\DataContainer -->
<g id="edge40" class="edge"><title>\\System\\Core\\Request&#45;&gt;\\System\\Core\\DataContainer</title>
<path fill="none" stroke="black" d="M409.834,-1150.95C398.391,-1146.71 385.902,-1140.84 376,-1133 318.624,-1087.6 274.76,-1011.6 254.08,-971.196"/>
<polygon fill="none" stroke="black" points="257.175,-969.561 249.558,-962.197 250.921,-972.704 257.175,-969.561"/>
</g>
<!-- \\System\\Core\\Renderer -->
<g id="node54" class="node"><title>\\System\\Core\\Renderer</title>
<polygon fill="none" stroke="black" points="477,-908 407,-908 407,-872 477,-872 477,-908"/>
<text text-anchor="middle" x="442" y="-887.1" font-family="Courier,monospace" font-size="11.00">Renderer</text>
</g>
<!-- \\System\\Core\\Config -->
<g id="node56" class="node"><title>\\System\\Core\\Config</title>
<polygon fill="none" stroke="black" points="470,-962 414,-962 414,-926 470,-926 470,-962"/>
<text text-anchor="middle" x="442" y="-941.1" font-family="Courier,monospace" font-size="11.00">Config</text>
</g>
<!-- \\System\\Core\\Config&#45;&gt;\\System\\Core\\DataContainer -->
<g id="edge46" class="edge"><title>\\System\\Core\\Config&#45;&gt;\\System\\Core\\DataContainer</title>
<path fill="none" stroke="black" d="M413.202,-944C384.625,-944 339.911,-944 303.209,-944"/>
<polygon fill="none" stroke="black" points="303.089,-940.5 293.089,-944 303.089,-947.5 303.089,-940.5"/>
</g>
<!-- \\System\\Core\\ValidationRules -->
<g id="node58" class="node"><title>\\System\\Core\\ValidationRules</title>
<polygon fill="none" stroke="black" points="501,-1772 383,-1772 383,-1736 501,-1736 501,-1772"/>
<text text-anchor="middle" x="442" y="-1751.1" font-family="Courier,monospace" font-size="11.00">ValidationRules</text>
</g>
<!-- \\System\\Core\\ValidationRules&#45;&gt;\\System\\Core\\ObjectList -->
<g id="edge52" class="edge"><title>\\System\\Core\\ValidationRules&#45;&gt;\\System\\Core\\ObjectList</title>
<path fill="none" stroke="black" d="M382.781,-1754.29C354.44,-1754.44 320.799,-1754.6 293.399,-1754.74"/>
<polygon fill="none" stroke="black" points="293.21,-1751.24 283.228,-1754.79 293.245,-1758.24 293.21,-1751.24"/>
</g>
<!-- \\System\\Core\\OutputType -->
<g id="node59" class="node"><title>\\System\\Core\\OutputType</title>
<polygon fill="none" stroke="black" points="484,-564 400,-564 400,-528 484,-528 484,-564"/>
<text text-anchor="middle" x="442" y="-543.1" font-family="Courier,monospace" font-size="11.00">OutputType</text>
</g>
<!-- \\System\\Core\\Response -->
<g id="node60" class="node"><title>\\System\\Core\\Response</title>
<polygon fill="none" stroke="black" points="477,-510 407,-510 407,-474 477,-474 477,-510"/>
<text text-anchor="middle" x="442" y="-489.1" font-family="Courier,monospace" font-size="11.00">Response</text>
</g>
<!-- \\Iterator -->
<g id="node92" class="node"><title>\\Iterator</title>
<ellipse fill="none" stroke="black" cx="53" cy="-1755" rx="51.8276" ry="18.3848"/>
<text text-anchor="middle" x="53" y="-1751.4" font-family="Times Roman,serif" font-size="14.00" fill="gray">\Iterator</text>
</g>
<!-- \\System\\Core\\ObjectList&#45;&gt;\\Iterator -->
<g id="edge54" class="edge"><title>\\System\\Core\\ObjectList&#45;&gt;\\Iterator</title>
<path fill="none" stroke="black" stroke-dasharray="1,5" d="M198.809,-1755C174.426,-1755 143.28,-1755 116.039,-1755"/>
<polygon fill="none" stroke="black" points="115.812,-1751.5 105.812,-1755 115.812,-1758.5 115.812,-1751.5"/>
</g>
<!-- \\System\\Core\\Module -->
<g id="node63" class="node"><title>\\System\\Core\\Module</title>
<polygon fill="none" stroke="black" points="470,-402 414,-402 414,-366 470,-366 470,-402"/>
<text text-anchor="middle" x="442" y="-381.1" font-family="Courier,monospace" font-size="11.00">Module</text>
</g>
<!-- \\System\\Helper\\Image -->
<g id="node65" class="node"><title>\\System\\Helper\\Image</title>
<polygon fill="none" stroke="black" points="469,-320 415,-320 415,-284 469,-284 469,-320"/>
<text text-anchor="middle" x="442" y="-299.1" font-family="Courier,monospace" font-size="11.00">Image</text>
</g>
<!-- \\System\\Helper\\Curl -->
<g id="node66" class="node"><title>\\System\\Helper\\Curl</title>
<polygon fill="none" stroke="black" points="469,-266 415,-266 415,-230 469,-230 469,-266"/>
<text text-anchor="middle" x="442" y="-245.1" font-family="Courier,monospace" font-size="11.00">Curl</text>
</g>
<!-- \\System\\Helper\\File -->
<g id="node67" class="node"><title>\\System\\Helper\\File</title>
<polygon fill="none" stroke="black" points="469,-212 415,-212 415,-176 469,-176 469,-212"/>
<text text-anchor="middle" x="442" y="-191.1" font-family="Courier,monospace" font-size="11.00">File</text>
</g>
<!-- \\System\\Helper\\Validator -->
<g id="node68" class="node"><title>\\System\\Helper\\Validator</title>
<polygon fill="none" stroke="black" points="480,-158 404,-158 404,-122 480,-122 480,-158"/>
<text text-anchor="middle" x="442" y="-137.1" font-family="Courier,monospace" font-size="11.00">Validator</text>
</g>
<!-- \\System\\Helper\\DateTime -->
<g id="node69" class="node"><title>\\System\\Helper\\DateTime</title>
<polygon fill="none" stroke="black" points="477,-104 407,-104 407,-68 477,-68 477,-104"/>
<text text-anchor="middle" x="442" y="-83.1" font-family="Courier,monospace" font-size="11.00">DateTime</text>
</g>
<!-- \\SplClassLoader -->
<g id="node70" class="node"><title>\\SplClassLoader</title>
<polygon fill="none" stroke="black" points="691,-363 581,-363 581,-327 691,-327 691,-363"/>
<text text-anchor="middle" x="636" y="-342.1" font-family="Courier,monospace" font-size="11.00">SplClassLoader</text>
</g>
</g>
</svg>
